<?xml version="1.0" encoding="utf-8"?>
<!-- Generator: Adobe Illustrator 27.5.0, SVG Export Plug-In . SVG Version: 6.00 Build 0)  -->
<svg version="1.1" id="Capa_1" xmlns="http://www.w3.org/2000/svg" xmlns:xlink="http://www.w3.org/1999/xlink" x="0px" y="0px"
	 viewBox="0 0 1200 1200" style="enable-background:new 0 0 1200 1200;" xml:space="preserve">
<g>
	<g>
		<g>
			<g id="pizza_1_">
				<g>
					<path style="fill:#E8E0A6;" d="M343.042,364.21l71.846,57.393l11.595,9.258l26.635,21.274l12.935,10.335l99.739,79.674
						l-73.997,27.685l-61.314,22.938l-125.984,47.119C304.495,639.885,205.329,488.815,343.042,364.21z"/>
				</g>
				<g>
					<path style="fill:#EEB51D;" d="M371.183,386.686l194.608,155.457l-225.652,84.409
						C340.139,626.553,252.735,513.448,371.183,386.686z"/>
				</g>
				<polygon style="fill:#FFFFFF;" points="326.287,602.701 555.258,540.039 341.669,620.536 				"/>
				<path style="fill:#F58921;" d="M321.89,470.644c0,0,121.757-8.523,236.533,69.746L374.35,387.043
					C374.35,387.043,338.873,422.146,321.89,470.644z"/>
				<g id="XMLID_4_">
					<path style="fill:#BD3728;" d="M414.888,421.603l11.595,9.258l26.635,21.274l12.935,10.335
						c0.784,4.512,0.949,9.204,0.415,13.985c-3.029,27.131-27.471,46.661-54.606,43.628c-27.118-3.031-46.657-27.476-43.626-54.603
						C370.967,441.029,391.089,422.758,414.888,421.603z"/>
					<path style="fill:#BD3728;" d="M462.175,540.693c15.722,1.758,27.705,14.097,29.619,29.136l-61.314,22.938
						c-4.252-6.355-6.36-14.199-5.449-22.392C427.093,551.919,443.725,538.629,462.175,540.693z"/>
					<path style="fill:#FFFFFF;" d="M375.929,491.256c0,0,62.481,34.168,93.78-15.684c0,0-26.229,57.369-66.557,42.291
						C366.676,504.229,375.929,491.256,375.929,491.256z"/>
					<path style="fill:#8F251E;" d="M373.047,466.339c0,0,36.789-37.622,80.157-6.245l-41.673-38.2
						C411.531,421.894,371.255,430.926,373.047,466.339z"/>
					<path style="fill:none;stroke:#763317;stroke-width:9;stroke-linecap:round;stroke-linejoin:round;stroke-miterlimit:10;" d="
						M414.888,421.603l11.595,9.258l26.635,21.274l12.935,10.335c0.784,4.512,0.949,9.204,0.415,13.985
						c-3.029,27.131-27.471,46.661-54.606,43.628c-27.118-3.031-46.657-27.476-43.626-54.603
						C370.967,441.029,391.089,422.758,414.888,421.603z"/>
					<polygon style="fill:#FFFFFF;" points="431.811,580.195 484.29,563.065 485.712,566.168 433.12,585.65 					"/>
					<path style="fill:#8F251E;" d="M431.063,569.794c0,0,18.325-21.537,50.189-13.852c0,0-16.118-23.033-41.093-10.05
						C415.185,558.88,431.063,569.794,431.063,569.794z"/>
					<path style="fill:none;stroke:#763317;stroke-width:9;stroke-linecap:round;stroke-linejoin:round;stroke-miterlimit:10;" d="
						M462.175,540.693c15.722,1.758,27.705,14.097,29.619,29.136l-61.314,22.938c-4.252-6.355-6.36-14.199-5.449-22.392
						C427.093,551.919,443.725,538.629,462.175,540.693z"/>
				</g>
				<path style="fill:#FFFFFF;" d="M298.034,613.825c0,0,9.218,0.735,4.345-92.822l36.006,101.391l-35.266,13.59L298.034,613.825z"
					/>
				<path style="fill:#EBCD93;" d="M274.58,492.762c0,0,36.564-56.648,61.492-61.527l33.117-42.384l-26.147-24.64
					C343.042,364.21,290.353,409.62,274.58,492.762z"/>
				<path style="fill:none;stroke:#763317;stroke-width:9;stroke-linecap:round;stroke-linejoin:round;stroke-miterlimit:10;" d="
					M343.042,364.21l71.846,57.393l11.595,9.258l26.635,21.274l12.935,10.335l99.739,79.674l-73.997,27.685l-61.314,22.938
					l-125.984,47.119C304.495,639.885,205.329,488.815,343.042,364.21z"/>
				<path style="fill:none;stroke:#763317;stroke-width:9;stroke-linecap:round;stroke-linejoin:round;stroke-miterlimit:10;" d="
					M371.183,386.686l194.608,155.457l-225.652,84.409C340.139,626.553,252.735,513.448,371.183,386.686z"/>
			</g>
			<g>
				<g>
					<path style="fill:#E8E0A6;" d="M887.487,441.854l-86.116,32.271l-13.887,5.213l-31.914,11.964l-15.507,5.807l-119.534,44.796
						l14.159-77.726l11.735-64.4l24.112-132.331C670.536,267.448,851.085,259.738,887.487,441.854z"/>
				</g>
				<g>
					<path style="fill:#EEB51D;" d="M853.755,454.492l-145.028,54.357l-14.637,5.488l-1.427,0.532l-22.504,8.432l-49.635,18.604
						l43.195-237.021C663.719,304.884,805.632,287.816,853.755,454.492z"/>
				</g>
				<polygon style="fill:#FFFFFF;" points="691.293,305.219 627.733,533.945 668.098,309.291 				"/>
				<path style="fill:#F58921;" d="M806.943,369.135c0,0-55.1,108.914-181.137,167.343l226.028-79.445
					C851.834,457.034,839.877,408.579,806.943,369.135z"/>
				<g id="XMLID_3_">
					<path style="fill:#BD3728;" d="M801.371,474.126l-13.887,5.213l-31.914,11.964l-15.507,5.807
						c-4.277-1.639-8.392-3.906-12.218-6.813c-21.742-16.505-25.987-47.502-9.474-69.244c16.505-21.739,47.504-25.987,69.243-9.471
						C807.214,426.456,812.58,453.101,801.371,474.126z"/>
					<path style="fill:#BD3728;" d="M674.884,453.682c-9.569,12.599-26.307,16.565-40.195,10.497l11.735-64.4
						c7.636-0.393,15.449,1.812,22.018,6.799C683.232,417.809,686.115,438.899,674.884,453.682z"/>
					<path style="fill:#FFFFFF;" d="M761.541,404.969c0,0-61.362,36.137-34.602,88.562c0,0-35.814-51.928-2.197-78.824
						C755.143,390.372,761.541,404.969,761.541,404.969z"/>
					<path style="fill:#8F251E;" d="M784.414,415.268c0,0,13.447,50.874-35.726,72.024l54.162-16.196
						C802.85,471.095,815.741,431.884,784.414,415.268z"/>
					<path style="fill:none;stroke:#763317;stroke-width:9;stroke-linecap:round;stroke-linejoin:round;stroke-miterlimit:10;" d="
						M801.371,474.126l-13.887,5.213l-31.914,11.964l-15.507,5.807c-4.277-1.639-8.392-3.906-12.218-6.813
						c-21.742-16.505-25.987-47.502-9.474-69.244c16.505-21.739,47.504-25.987,69.243-9.471
						C807.214,426.456,812.58,453.101,801.371,474.126z"/>
					<polygon style="fill:#FFFFFF;" points="656.534,407.363 644.338,461.205 640.943,460.835 651.176,405.692 					"/>
					<path style="fill:#8F251E;" d="M665.846,412.053c0,0,9.099,26.779-13.836,50.194c0,0,28.045-2.035,29.694-30.134
						C683.356,404.011,665.846,412.053,665.846,412.053z"/>
					<path style="fill:none;stroke:#763317;stroke-width:9;stroke-linecap:round;stroke-linejoin:round;stroke-miterlimit:10;" d="
						M674.884,453.682c-9.569,12.599-26.307,16.565-40.195,10.497l11.735-64.4c7.636-0.393,15.449,1.812,22.018,6.799
						C683.232,417.809,686.115,438.899,674.884,453.682z"/>
				</g>
				<path style="fill:#FFFFFF;" d="M696.226,275.26c0,0-5.357,7.541,77.48,51.309l-105.518-21.05l6.406-37.247L696.226,275.26z"/>
				<path style="fill:#EBCD93;" d="M812.2,317.177c0,0,29.897,60.432,21.307,84.337l19.419,50.164l34.562-9.824
					C887.487,441.854,875.505,373.338,812.2,317.177z"/>
				<path style="fill:none;stroke:#763317;stroke-width:9;stroke-linecap:round;stroke-linejoin:round;stroke-miterlimit:10;" d="
					M887.487,441.854l-86.116,32.271l-13.887,5.213l-31.914,11.964l-15.507,5.807l-119.534,44.796l14.159-77.726l11.735-64.4
					l24.112-132.331C670.536,267.448,851.085,259.738,887.487,441.854z"/>
				<path style="fill:none;stroke:#763317;stroke-width:9;stroke-linecap:round;stroke-linejoin:round;stroke-miterlimit:10;" d="
					M853.756,454.497l-233.227,87.408l43.185-237.017C663.715,304.888,805.638,287.819,853.756,454.497z"/>
				<g>
					<path style="fill:#BF9D69;" d="M714.571,338.022c25.378,22.995-5.563,43.003-5.563,43.003l-9.825-10.818
						c0,0-4.942,24.988-20.825,11.678c-15.384-12.905,6.202-23.939,6.202-23.939l-10.353-6.097
						C674.207,351.85,689.193,315.025,714.571,338.022z"/>
					<path style="fill:#FFFFFF;" d="M712.426,339.049c0,0-19.437-3.687-29.515,14.716l-8.705-1.915
						C674.207,351.85,689.82,318.381,712.426,339.049z"/>
					<g>
						<path style="fill:none;stroke:#763317;stroke-width:9;stroke-linecap:round;stroke-linejoin:round;stroke-miterlimit:10;" d="
							M684.559,357.947c0,0-21.585,11.034-6.202,23.939c15.883,13.31,20.825-11.678,20.825-11.678l9.825,10.818
							c0,0,30.94-20.007,5.563-43.003c-25.378-22.997-40.364,13.828-40.364,13.828L684.559,357.947z"/>
					</g>
				</g>
				<g>
					<path style="fill:#BF9D69;" d="M757.43,363.281c11.874-18.336,27.636-0.908,27.636-0.908l-5.8,7.294
						c0,0,16.236,0.551,9.486,11.916c-6.547,11.006-15.71-1.448-15.71-1.448l-2.777,7.135
						C770.265,387.27,745.553,381.613,757.43,363.281z"/>
					<path style="fill:#FFFFFF;" d="M758.292,364.527c0,0-0.336,12.61,12.289,17.072l-0.317,5.671
						C770.265,387.27,747.598,380.877,758.292,364.527z"/>
					<g>
						<path style="fill:none;stroke:#763317;stroke-width:9;stroke-linecap:round;stroke-linejoin:round;stroke-miterlimit:10;" d="
							M773.042,380.135c0,0,9.163,12.454,15.71,1.448c6.75-11.365-9.486-11.916-9.486-11.916l5.8-7.294
							c0,0-15.762-17.428-27.636,0.908c-11.878,18.332,12.835,23.988,12.835,23.988L773.042,380.135z"/>
					</g>
				</g>
				<g>
					<path style="fill:#BF9D69;" d="M694.091,514.337l-1.808-0.399c0,0,0.142,0.334,0.381,0.931l-22.504,8.432
						c0.307-5.567,3.105-10.908,3.105-10.908l-11.965,1c0,0-0.015-0.072-0.043-0.199c-0.653-3.053-7.559-38.329,24.988-34.416
						c23.235,2.792,24.196,19.66,22.483,30.072L694.091,514.337z"/>
					<path style="fill:#FFFFFF;" d="M685.082,480.857c0,0-17.987,8.23-15.579,29.075l-8.208,3.461
						C661.295,513.393,654.689,477.059,685.082,480.857z"/>
					<g>
						<path style="fill:none;stroke:#763317;stroke-width:9;stroke-linecap:round;stroke-linejoin:round;stroke-miterlimit:10;" d="
							M694.091,514.337l-1.808-0.399c0,0,0.142,0.334,0.381,0.931l-22.504,8.432c0.307-5.567,3.105-10.908,3.105-10.908l-11.965,1
							c0,0-0.015-0.072-0.043-0.199c-0.653-3.053-7.559-38.329,24.988-34.416c23.235,2.792,24.196,19.66,22.483,30.072
							L694.091,514.337z"/>
					</g>
				</g>
			</g>
			<g>
				<g>
					<g>
						<path style="fill:#E8E0A6;" d="M664.885,267.2l-13.558,90.951l-2.175,14.677l-5.024,33.714l-2.441,16.375l-18.813,126.256
							l-61.103-50.081l-50.62-41.502l-104.02-85.284C407.131,372.305,487.974,210.686,664.885,267.2z"/>
					</g>
					<g>
						<path style="fill:#EEB51D;" d="M659.573,302.829l-22.818,153.187l-2.304,15.464l-0.228,1.502l-3.542,23.769l-7.805,52.43
							L436.555,396.434C436.555,396.434,490.475,264.053,659.573,302.829z"/>
					</g>
					<polygon style="fill:#FFFFFF;" points="450.232,372.478 619.404,539.013 442.535,394.735 					"/>
					<path style="fill:#F58921;" d="M562.22,302.358c0,0,68.516,101.011,58.467,239.566l40.174-236.186
						C660.862,305.738,612.69,292.688,562.22,302.358z"/>
					<path style="fill:#FFFFFF;" d="M426.423,353.628c0,0,3.996,8.347,82.454-42.855l-69.592,82.05l-29.464-23.666L426.423,353.628z
						"/>
					<path style="fill:#EBCD93;" d="M519.341,272.552c0,0,67.343,3.171,84.084,22.283l53.28,7.351l8.18-34.985
						C664.885,267.2,599.158,244.443,519.341,272.552z"/>
					<path style="fill:none;stroke:#763317;stroke-width:9;stroke-linecap:round;stroke-linejoin:round;stroke-miterlimit:10;" d="
						M664.885,267.2l-13.558,90.951l-2.175,14.677l-5.024,33.714l-2.441,16.375l-18.813,126.256l-61.103-50.081l-50.62-41.502
						l-104.02-85.284C407.131,372.305,487.974,210.686,664.885,267.2z"/>
					<path style="fill:none;stroke:#763317;stroke-width:9;stroke-linecap:round;stroke-linejoin:round;stroke-miterlimit:10;" d="
						M659.577,302.825l-36.702,246.348L436.562,396.431C436.562,396.431,490.479,264.046,659.577,302.825z"/>
				</g>
				<g>
					<path style="fill:#BD3728;" d="M482.285,373.573l14.328,7.689c2.67,1.432,3.735,4.661,2.376,7.195l-9.958,18.557
						c-1.36,2.538-4.638,3.434-7.315,1.994l-14.322-7.685c-2.678-1.437-3.74-4.662-2.379-7.2l9.952-18.551
						C476.332,373.029,479.608,372.141,482.285,373.573z"/>
					<path style="fill:#FFFFFF;" d="M468.607,391.329c0,0,16.349,13.172,20.021,9.669l-2.656,8.304l-22.934-8.512L468.607,391.329z"
						/>
					<path style="fill:none;stroke:#763317;stroke-width:9;stroke-linecap:round;stroke-linejoin:round;stroke-miterlimit:10;" d="
						M496.613,381.262c2.67,1.432,3.735,4.661,2.376,7.195l-9.958,18.557c-1.36,2.538-4.638,3.434-7.315,1.994l-14.322-7.685
						c-2.678-1.437-3.74-4.662-2.379-7.2l9.952-18.551c1.365-2.542,4.641-3.431,7.318-1.998L496.613,381.262z"/>
				</g>
				<g>
					<path style="fill:#BD3728;" d="M548.919,352.854l13.093-4.321c2.442-0.805,5.049,0.425,5.816,2.742l5.59,16.952
						c0.767,2.324-0.595,4.858-3.041,5.665l-13.089,4.32c-2.447,0.807-5.05-0.426-5.817-2.743l-5.593-16.955
						C545.115,356.197,546.474,353.659,548.919,352.854z"/>
					<path style="fill:#FFFFFF;" d="M551.852,371.63c0,0,17.642-2.363,17.636-6.665l3.552,6.483l-18.625,9.128L551.852,371.63z"/>
					<path style="fill:none;stroke:#763317;stroke-width:9;stroke-linecap:round;stroke-linejoin:round;stroke-miterlimit:10;" d="
						M562.012,348.534c2.442-0.805,5.049,0.425,5.816,2.742l5.59,16.952c0.767,2.324-0.595,4.858-3.041,5.665l-13.089,4.32
						c-2.447,0.807-5.05-0.426-5.817-2.743l-5.593-16.955c-0.764-2.318,0.595-4.855,3.041-5.661L562.012,348.534z"/>
				</g>
				<g>
					<path style="fill:#BD3728;" d="M590.397,311.267l7.323,8.828c1.372,1.647,1.212,4.037-0.353,5.336l-11.432,9.481
						c-1.563,1.3-3.943,1.012-5.31-0.637l-7.322-8.822c-1.369-1.651-1.208-4.04,0.357-5.34l11.429-9.484
						C586.655,309.331,589.033,309.619,590.397,311.267z"/>
					<path style="fill:#FFFFFF;" d="M576.748,319.245c0,0,7.193,12.944,10.52,11.634l-3.94,4.72l-12.732-11.65L576.748,319.245z"/>
					<path style="fill:none;stroke:#763317;stroke-width:9;stroke-linecap:round;stroke-linejoin:round;stroke-miterlimit:10;" d="
						M597.72,320.094c1.372,1.647,1.212,4.037-0.353,5.336l-11.432,9.481c-1.563,1.3-3.943,1.012-5.31-0.637l-7.322-8.822
						c-1.369-1.651-1.208-4.04,0.357-5.34l11.429-9.484c1.566-1.299,3.945-1.011,5.309,0.637L597.72,320.094z"/>
				</g>
				<g>
					<path style="fill:#BD3728;" d="M524.928,347.021l2.406,7.087c0.452,1.326-0.204,2.747-1.46,3.177l-9.187,3.114
						c-1.255,0.428-2.638-0.307-3.085-1.628l-2.408-7.092c-0.447-1.324,0.209-2.738,1.466-3.166l9.182-3.118
						C523.094,344.97,524.482,345.697,524.928,347.021z"/>
					<path style="fill:#FFFFFF;" d="M514.744,348.699c0,0,1.365,9.572,3.703,9.549l-3.509,1.96l-5.039-10.076L514.744,348.699z"/>
					<path style="fill:none;stroke:#763317;stroke-width:9;stroke-linecap:round;stroke-linejoin:round;stroke-miterlimit:10;" d="
						M527.334,354.108c0.452,1.326-0.204,2.747-1.46,3.177l-9.187,3.114c-1.255,0.428-2.638-0.307-3.085-1.628l-2.408-7.092
						c-0.447-1.324,0.209-2.738,1.466-3.166l9.182-3.118c1.253-0.424,2.64,0.303,3.087,1.627L527.334,354.108z"/>
				</g>
				<g>
					<path style="fill:#BD3728;" d="M615.304,505.131l2.402,7.092c0.451,1.323-0.203,2.744-1.461,3.173l-9.183,3.108
						c-1.254,0.433-2.638-0.297-3.087-1.618l-2.407-7.094c-0.448-1.323,0.21-2.745,1.465-3.169l9.182-3.116
						C613.47,503.08,614.854,503.808,615.304,505.131z"/>
					<path style="fill:#FFFFFF;" d="M605.121,506.811c0,0,1.365,9.57,3.699,9.544l-3.502,1.963l-5.046-10.075L605.121,506.811z"/>
					<path style="fill:none;stroke:#763317;stroke-width:9;stroke-linecap:round;stroke-linejoin:round;stroke-miterlimit:10;" d="
						M617.706,512.223c0.451,1.323-0.203,2.744-1.461,3.173l-9.183,3.108c-1.254,0.433-2.638-0.297-3.087-1.618l-2.407-7.094
						c-0.448-1.323,0.21-2.745,1.465-3.169l9.182-3.116c1.255-0.427,2.639,0.301,3.09,1.624L617.706,512.223z"/>
				</g>
				<g>
					<path style="fill:#BD3728;" d="M562.382,464.68l-2.037,7.207c-0.378,1.343-1.724,2.143-3.003,1.783l-9.331-2.636
						c-1.275-0.361-2.004-1.746-1.623-3.096l2.035-7.2c0.381-1.345,1.727-2.144,3.001-1.785l9.329,2.634
						C562.032,461.949,562.759,463.337,562.382,464.68z"/>
					<path style="fill:#FFFFFF;" d="M553.039,460.291c0,0-4.302,8.659-2.363,9.964l-3.997-0.373l1.555-11.157L553.039,460.291z"/>
					<path style="fill:none;stroke:#763317;stroke-width:9;stroke-linecap:round;stroke-linejoin:round;stroke-miterlimit:10;" d="
						M560.345,471.886c-0.378,1.343-1.724,2.143-3.003,1.783l-9.331-2.636c-1.275-0.361-2.004-1.746-1.623-3.096l2.035-7.2
						c0.381-1.345,1.727-2.144,3.001-1.785l9.329,2.634c1.28,0.362,2.006,1.75,1.629,3.093L560.345,471.886z"/>
				</g>
				<g>
					<path style="fill:#BD3728;" d="M620.474,408.409l6.986,2.697c1.301,0.508,1.971,1.923,1.492,3.161l-3.499,9.039
						c-0.479,1.238-1.926,1.832-3.233,1.332l-6.978-2.707c-1.307-0.505-1.971-1.918-1.494-3.152l3.494-9.043
						C617.721,408.493,619.175,407.903,620.474,408.409z"/>
					<path style="fill:#FFFFFF;" d="M615.232,417.298c0,0,8.217,5.09,9.699,3.283l-0.747,3.949l-10.96-2.596L615.232,417.298z"/>
					<path style="fill:none;stroke:#763317;stroke-width:9;stroke-linecap:round;stroke-linejoin:round;stroke-miterlimit:10;" d="
						M627.46,411.106c1.301,0.508,1.971,1.923,1.492,3.161l-3.499,9.039c-0.479,1.238-1.926,1.832-3.233,1.332l-6.978-2.707
						c-1.307-0.505-1.971-1.918-1.494-3.152l3.494-9.043c0.479-1.242,1.933-1.832,3.232-1.326L627.46,411.106z"/>
				</g>
				<g>
					<path style="fill:#BD3728;" d="M635.421,318.045l-0.726,7.456c-0.142,1.388-1.32,2.411-2.648,2.284l-9.646-0.949
						c-1.319-0.126-2.279-1.365-2.146-2.755l0.732-7.45c0.138-1.394,1.32-2.415,2.639-2.286l9.65,0.946
						C634.597,315.42,635.557,316.659,635.421,318.045z"/>
					<path style="fill:#FFFFFF;" d="M625.454,315.378c0,0-2.705,9.283-0.565,10.227l-4.001,0.338l-0.44-11.261L625.454,315.378z"/>
					<path style="fill:none;stroke:#763317;stroke-width:9;stroke-linecap:round;stroke-linejoin:round;stroke-miterlimit:10;" d="
						M634.695,325.5c-0.142,1.388-1.32,2.411-2.648,2.284l-9.646-0.949c-1.319-0.126-2.279-1.365-2.146-2.755l0.732-7.45
						c0.138-1.394,1.32-2.415,2.639-2.286l9.65,0.946c1.32,0.129,2.281,1.368,2.144,2.754L634.695,325.5z"/>
				</g>
				<g>
					<path style="fill:#BD3728;" d="M591.148,406.298l7.146,2.241c1.332,0.415,2.096,1.785,1.693,3.053l-2.902,9.248
						c-0.391,1.266-1.8,1.954-3.134,1.537l-7.142-2.244c-1.334-0.416-2.092-1.785-1.696-3.051l2.903-9.252
						C588.411,406.567,589.817,405.879,591.148,406.298z"/>
					<path style="fill:#FFFFFF;" d="M586.497,415.509c0,0,8.53,4.547,9.89,2.646l-0.485,3.988l-11.111-1.875L586.497,415.509z"/>
					<path style="fill:none;stroke:#763317;stroke-width:9;stroke-linecap:round;stroke-linejoin:round;stroke-miterlimit:10;" d="
						M598.294,408.539c1.332,0.415,2.096,1.785,1.693,3.053l-2.902,9.248c-0.391,1.266-1.8,1.954-3.134,1.537l-7.142-2.244
						c-1.334-0.416-2.092-1.785-1.696-3.051l2.903-9.252c0.395-1.263,1.801-1.951,3.133-1.532L598.294,408.539z"/>
				</g>
				<g>
					<path style="fill:#BD3728;" d="M511.919,417.259l2.398,7.087c0.456,1.324-0.205,2.747-1.46,3.171l-9.183,3.117
						c-1.253,0.427-2.639-0.307-3.087-1.623l-2.405-7.095c-0.451-1.324,0.208-2.747,1.461-3.168l9.186-3.117
						C510.082,415.203,511.468,415.936,511.919,417.259z"/>
					<path style="fill:#FFFFFF;" d="M501.731,418.936c0,0,1.363,9.572,3.7,9.545l-3.502,1.958l-5.044-10.072L501.731,418.936z"/>
					<path style="fill:none;stroke:#763317;stroke-width:9;stroke-linecap:round;stroke-linejoin:round;stroke-miterlimit:10;" d="
						M514.317,424.346c0.456,1.324-0.205,2.747-1.46,3.171l-9.183,3.117c-1.253,0.427-2.639-0.307-3.087-1.623l-2.405-7.095
						c-0.451-1.324,0.208-2.747,1.461-3.168l9.186-3.117c1.253-0.429,2.639,0.305,3.09,1.627L514.317,424.346z"/>
				</g>
				<g>
					<path style="fill:#BD3728;" d="M534.165,425.008l5.02-12.835c0.936-2.398,3.542-3.622,5.822-2.73l16.622,6.5
						c2.275,0.893,3.363,3.56,2.424,5.958l-5.024,12.838c-0.935,2.396-3.545,3.619-5.823,2.73l-16.625-6.505
						C534.308,430.073,533.225,427.409,534.165,425.008z"/>
					<path style="fill:#FFFFFF;" d="M550.496,434.728c0,0,9.431-15.096,6.111-17.832l7.26,1.396l-4.848,20.165L550.496,434.728z"/>
					<path style="fill:none;stroke:#763317;stroke-width:9;stroke-linecap:round;stroke-linejoin:round;stroke-miterlimit:10;" d="
						M539.185,412.173c0.936-2.398,3.542-3.622,5.822-2.73l16.622,6.5c2.275,0.893,3.363,3.56,2.424,5.958l-5.024,12.838
						c-0.935,2.396-3.545,3.619-5.823,2.73l-16.625-6.505c-2.274-0.892-3.357-3.556-2.417-5.957L539.185,412.173z"/>
				</g>
				<g>
					<path style="fill:#BD3728;" d="M611.104,343.546l14.389,9.398c2.681,1.756,3.509,5.248,1.842,7.801l-12.174,18.628
						c-1.663,2.549-5.192,3.192-7.881,1.433l-14.386-9.395c-2.687-1.758-3.514-5.249-1.845-7.798l12.174-18.631
						C604.886,342.432,608.427,341.789,611.104,343.546z"/>
					<path style="fill:#FFFFFF;" d="M595.088,360.996c0,0,16.012,15.356,20.201,12.005l-3.552,8.502l-23.378-11.053L595.088,360.996
						z"/>
					<path style="fill:none;stroke:#763317;stroke-width:9;stroke-linecap:round;stroke-linejoin:round;stroke-miterlimit:10;" d="
						M625.494,352.944c2.681,1.756,3.509,5.248,1.842,7.801l-12.174,18.628c-1.663,2.549-5.192,3.192-7.881,1.433l-14.386-9.395
						c-2.687-1.758-3.514-5.249-1.845-7.798l12.174-18.631c1.663-2.548,5.203-3.19,7.881-1.434L625.494,352.944z"/>
				</g>
				<g>
					<path style="fill:#BD3728;" d="M609.218,453.413l1.952,17.074c0.359,3.19-1.793,6.054-4.822,6.4l-22.11,2.528
						c-3.026,0.344-5.777-1.963-6.14-5.152l-1.952-17.073c-0.362-3.185,1.801-6.056,4.826-6.4l22.11-2.527
						C606.106,447.919,608.855,450.227,609.218,453.413z"/>
					<path style="fill:#FFFFFF;" d="M585.559,452.229c0,0-1.59,22.13,3.662,23.213l-8.814,2.688l-6.415-25.045L585.559,452.229z"/>
					<path style="fill:none;stroke:#763317;stroke-width:9;stroke-linecap:round;stroke-linejoin:round;stroke-miterlimit:10;" d="
						M611.17,470.486c0.359,3.19-1.793,6.054-4.822,6.4l-22.11,2.528c-3.026,0.344-5.777-1.963-6.14-5.152l-1.952-17.073
						c-0.362-3.185,1.801-6.056,4.826-6.4l22.11-2.527c3.025-0.343,5.773,1.964,6.137,5.15L611.17,470.486z"/>
				</g>
			</g>
			<g>
				<g>
					<g>
						<path style="fill:#E8E0A6;" d="M370.532,659.102l84.277-36.791l13.596-5.944l31.238-13.633l15.175-6.62l116.992-51.071
							l-10.022,78.37l-8.305,64.934l-17.072,133.418C596.412,821.765,416.53,839.029,370.532,659.102z"/>
					</g>
					<g>
						<path style="fill:#EEB51D;" d="M403.547,644.691l141.938-61.965l14.334-6.251l1.395-0.612l22.025-9.609l48.58-21.209
							l-30.574,238.977C601.245,784.022,460.428,808.586,403.547,644.691z"/>
					</g>
					<polygon style="fill:#FFFFFF;" points="573.684,785.145 625.036,553.377 596.633,779.858 					"/>
					<path style="fill:#F58921;" d="M454.817,727.448c0,0,49.245-111.677,172.011-176.704l-221.499,91.312
						C405.328,642.056,419.836,689.806,454.817,727.448z"/>
					<g id="XMLID_2_">
						<path style="fill:#BD3728;" d="M454.809,622.311l13.596-5.944l31.238-13.633l15.175-6.62
							c4.355,1.405,8.586,3.448,12.563,6.151c22.584,15.333,28.463,46.06,13.128,68.648c-15.331,22.58-46.066,28.466-68.648,13.124
							C451.505,670.223,444.727,643.906,454.809,622.311z"/>
						<path style="fill:#BD3728;" d="M582.207,636.025c8.886-13.091,25.393-17.934,39.582-12.612l-8.305,64.934
							c-7.605,0.794-15.526-0.997-22.35-5.624C575.772,672.288,571.78,651.382,582.207,636.025z"/>
						<path style="fill:#FFFFFF;" d="M498.254,689.262c0,0,59.359-39.339,29.859-90.273c0,0,38.516,49.959,6.375,78.597
							C505.413,703.496,498.254,689.262,498.254,689.262z"/>
						<path style="fill:#8F251E;" d="M474.866,680.187c0,0-16.118-50.088,31.861-73.816l-53.224,19.044
							C453.503,625.414,442.707,665.255,474.866,680.187z"/>
						<path style="fill:none;stroke:#763317;stroke-width:9;stroke-linecap:round;stroke-linejoin:round;stroke-miterlimit:10;" d="
							M454.809,622.311l13.596-5.944l31.238-13.633l15.175-6.62c4.355,1.405,8.586,3.448,12.563,6.151
							c22.584,15.333,28.463,46.06,13.128,68.648c-15.331,22.58-46.066,28.466-68.648,13.124
							C451.505,670.223,444.727,643.906,454.809,622.311z"/>
						<polygon style="fill:#FFFFFF;" points="602.99,681.303 612.309,626.89 615.719,627.083 608.427,682.687 						"/>
						<path style="fill:#8F251E;" d="M593.435,677.113c0,0-10.502-26.252,11.158-50.851c0,0-27.891,3.515-28.052,31.665
							C576.376,686.071,593.435,677.113,593.435,677.113z"/>
						<path style="fill:none;stroke:#763317;stroke-width:9;stroke-linecap:round;stroke-linejoin:round;stroke-miterlimit:10;" d="
							M582.207,636.025c8.886-13.091,25.393-17.934,39.582-12.612l-8.305,64.934c-7.605,0.794-15.526-0.997-22.35-5.624
							C575.772,672.288,571.78,651.382,582.207,636.025z"/>
					</g>
					<path style="fill:#FFFFFF;" d="M570.344,815.324c0,0,4.949-7.811-80.083-47.135l106.482,15.438l-4.423,37.532L570.344,815.324z
						"/>
					<path style="fill:#EBCD93;" d="M452.315,779.615c0,0-33.051-58.765-25.741-83.095l-22.051-49.061l-33.99,11.643
						C370.532,659.102,386.129,726.886,452.315,779.615z"/>
					<path style="fill:none;stroke:#763317;stroke-width:9;stroke-linecap:round;stroke-linejoin:round;stroke-miterlimit:10;" d="
						M370.532,659.102l84.277-36.791l13.596-5.944l31.238-13.633l15.175-6.62l116.992-51.071l-10.022,78.37l-8.305,64.934
						l-17.072,133.418C596.412,821.765,416.53,839.029,370.532,659.102z"/>
					<path style="fill:none;stroke:#763317;stroke-width:9;stroke-linecap:round;stroke-linejoin:round;stroke-miterlimit:10;" d="
						M403.543,644.687l228.268-99.644l-30.572,238.979C601.239,784.022,460.424,808.586,403.543,644.687z"/>
				</g>
				<g>
					<path style="fill:#56B447;" d="M534.348,759.079c0,0,28.177-46.275,58.804-9.969
						C593.152,749.11,575.226,781.119,534.348,759.079z"/>
					<path style="fill:#FFFFFF;" d="M595.605,745.878c0,0-25.217,23.713-52.41,8.525l-3.325,4.066
						C539.87,758.47,581.338,775.512,595.605,745.878z"/>
					<path style="fill:#449D46;" d="M592.327,748.78c0,0-24.776-17.334-50.951,8.89c0,0-0.596-12.703,13.523-17.815
						C569.026,734.742,586.4,734.333,592.327,748.78z"/>
					<path style="fill:none;stroke:#783518;stroke-width:9;stroke-linecap:round;stroke-linejoin:round;stroke-miterlimit:10;" d="
						M592.813,747.313c0,0-15.914,33.057-58.079,13.592C534.734,760.904,559.998,712.969,592.813,747.313z"/>
				</g>
				<g>
					<path style="fill:#56B447;" d="M572.076,593.002c0,0,23.407-38.452,48.855-8.291
						C620.931,584.711,606.036,611.31,572.076,593.002z"/>
					<path style="fill:#FFFFFF;" d="M622.974,582.024c0,0-20.956,19.708-43.55,7.084l-2.764,3.385
						C576.661,592.494,611.115,606.649,622.974,582.024z"/>
					<path style="fill:#449D46;" d="M620.243,584.435c0,0-20.58-14.398-42.333,7.386c0,0-0.494-10.549,11.24-14.795
						C600.889,572.776,615.322,572.44,620.243,584.435z"/>
					<path style="fill:none;stroke:#783518;stroke-width:9;stroke-linecap:round;stroke-linejoin:round;stroke-miterlimit:10;" d="
						M620.654,583.218c0,0-13.229,27.468-48.253,11.297C572.4,594.515,593.382,554.685,620.654,583.218z"/>
				</g>
				<g>
					<path style="fill:#56B447;" d="M563.847,715.506c0,0-27.407-9.183-12.149-29.413
						C551.697,686.094,570.47,691.63,563.847,715.506z"/>
					<path style="fill:#FFFFFF;" d="M549.726,685.203c0,0,15.323,10.307,10.639,26.253l2.51,1.249
						C562.875,712.706,566.835,689.114,549.726,685.203z"/>
					<path style="fill:#449D46;" d="M551.625,686.566c0,0-6.084,14.938,10.654,25.45c0,0-6.536,1.812-10.865-4.929
						C547.083,700.347,544.811,691.357,551.625,686.566z"/>
					<path style="fill:none;stroke:#783518;stroke-width:9;stroke-linecap:round;stroke-linejoin:round;stroke-miterlimit:10;" d="
						M550.801,686.482c0,0,19.082,4.367,13.945,28.607C564.746,715.089,536.82,707.618,550.801,686.482z"/>
				</g>
				<g>
					<path style="fill:#56B447;" d="M570.575,629.596c0,0-19.76-6.614-8.755-21.197C561.82,608.399,575.35,612.392,570.575,629.596z
						"/>
					<path style="fill:#FFFFFF;" d="M560.394,607.75c0,0,11.045,7.436,7.668,18.928l1.811,0.901
						C569.873,627.579,572.727,610.578,560.394,607.75z"/>
					<path style="fill:#449D46;" d="M561.762,608.733c0,0-4.382,10.766,7.683,18.35c0,0-4.711,1.303-7.837-3.555
						C558.49,618.667,556.849,612.19,561.762,608.733z"/>
					<path style="fill:none;stroke:#783518;stroke-width:9;stroke-linecap:round;stroke-linejoin:round;stroke-miterlimit:10;" d="
						M561.176,608.678c0,0,13.746,3.149,10.045,20.619C571.221,629.297,551.093,623.915,561.176,608.678z"/>
				</g>
				<g>
					<path style="fill:#56B447;" d="M461.671,704.778c0,0-19.756-6.617-8.759-21.2C452.913,683.578,466.441,687.568,461.671,704.778
						z"/>
					<path style="fill:#FFFFFF;" d="M451.491,682.933c0,0,11.043,7.433,7.668,18.924l1.811,0.901
						C460.97,702.758,463.821,685.756,451.491,682.933z"/>
					<path style="fill:#449D46;" d="M452.859,683.915c0,0-4.385,10.769,7.681,18.346c0,0-4.711,1.309-7.837-3.548
						C449.583,693.852,447.944,687.37,452.859,683.915z"/>
					<path style="fill:none;stroke:#783518;stroke-width:9;stroke-linecap:round;stroke-linejoin:round;stroke-miterlimit:10;" d="
						M452.268,683.856c0,0,13.754,3.149,10.05,20.622C462.318,704.478,442.19,699.094,452.268,683.856z"/>
				</g>
				<g>
					<path style="fill:#56B447;" d="M426.174,670.067c0,0-6.648-19.743,11.62-19.776
						C437.794,650.291,442.777,663.49,426.174,670.067z"/>
					<path style="fill:#FFFFFF;" d="M437.444,648.769c0,0,0.742,13.288-10.457,17.534l0.376,1.99
						C427.363,668.293,442.644,660.301,437.444,648.769z"/>
					<path style="fill:#449D46;" d="M437.488,650.453c0,0-11.231,3.001-9.99,17.196c0,0-3.885-2.965-1.897-8.389
						C427.594,653.837,431.771,648.621,437.488,650.453z"/>
					<path style="fill:none;stroke:#783518;stroke-width:9;stroke-linecap:round;stroke-linejoin:round;stroke-miterlimit:10;" d="
						M437.178,649.941c0,0,5.793,12.867-10.37,20.468C426.808,670.409,418.949,651.105,437.178,649.941z"/>
				</g>
				<g>
					<path style="fill:#56B447;" d="M492.961,746.508c0,0-12.702-37.719,22.192-37.78
						C515.153,708.728,524.682,733.937,492.961,746.508z"/>
					<path style="fill:#FFFFFF;" d="M514.5,705.818c0,0,1.412,25.394-19.983,33.504l0.717,3.8
						C495.234,743.122,524.42,727.854,514.5,705.818z"/>
					<path style="fill:#449D46;" d="M514.578,709.034c0,0-21.457,5.738-19.086,32.855c0,0-7.424-5.668-3.626-16.028
						C495.673,715.499,503.653,705.539,514.578,709.034z"/>
					<path style="fill:none;stroke:#783518;stroke-width:9;stroke-linecap:round;stroke-linejoin:round;stroke-miterlimit:10;" d="
						M513.987,708.066c0,0,11.061,24.58-19.817,39.086C494.171,747.152,479.16,710.286,513.987,708.066z"/>
				</g>
			</g>
			<g>
				<g>
					<g>
						<path style="fill:#E8E0A6;" d="M859.98,707.165l-73.726-54.959l-11.897-8.859l-27.334-20.369l-13.272-9.902L631.408,536.79
							l73.023-30.146l60.512-24.975l124.337-51.32C889.281,430.35,993.446,578.015,859.98,707.165z"/>
					</g>
					<g>
						<path style="fill:#EEB51D;" d="M831.104,685.631l-124.179-92.55l-12.535-9.343l-1.218-0.911l-19.266-14.368l-42.502-31.674
							l222.702-91.916C854.106,444.87,945.246,554.981,831.104,685.631z"/>
					</g>
					<polygon style="fill:#FFFFFF;" points="868.74,468.243 642.001,538.545 852.772,450.94 					"/>
					<path style="fill:#F58921;" d="M877.562,600.081c0,0-121.406,12.598-238.735-61.787l189.101,147.101
						C827.927,685.396,862.217,649.122,877.562,600.081z"/>
					<g id="XMLID_1_">
						<path style="fill:#BD3728;" d="M786.255,652.206l-11.897-8.859l-27.334-20.369l-13.272-9.902
							c-0.935-4.475-1.257-9.166-0.88-13.962c2.115-27.212,25.892-47.55,53.111-45.43c27.202,2.119,47.545,25.901,45.429,53.115
							C829.502,631.329,810.005,650.258,786.255,652.206z"/>
						<path style="fill:#BD3728;" d="M735.006,534.769c-15.772-1.227-28.16-13.161-30.574-28.124l60.512-24.975
							c4.462,6.207,6.834,13.979,6.191,22.196C769.697,522.379,753.516,536.212,735.006,534.769z"/>
						<path style="fill:#FFFFFF;" d="M822.865,581.291c0,0-63.597-32.051-93.205,18.817c0,0,24.294-58.214,65.103-44.497
							C831.672,568.014,822.865,581.291,822.865,581.291z"/>
						<path style="fill:#8F251E;" d="M826.577,606.102c0,0-35.515,38.83-79.907,8.92l42.928,36.784
							C789.598,651.806,829.555,641.435,826.577,606.102z"/>
						<path style="fill:none;stroke:#763317;stroke-width:9;stroke-linecap:round;stroke-linejoin:round;stroke-miterlimit:10;" d="
							M786.255,652.206l-11.897-8.859l-27.334-20.369l-13.272-9.902c-0.935-4.475-1.257-9.166-0.88-13.962
							c2.115-27.212,25.892-47.55,53.111-45.43c27.202,2.119,47.545,25.901,45.429,53.115
							C829.502,631.329,810.005,650.258,786.255,652.206z"/>
						<polygon style="fill:#FFFFFF;" points="764.032,494.272 712.155,513.153 710.629,510.096 762.537,488.869 						"/>
						<path style="fill:#8F251E;" d="M765.125,504.645c0,0-17.59,22.141-49.695,15.523c0,0,16.883,22.481,41.406,8.668
							C781.361,515.021,765.125,504.645,765.125,504.645z"/>
						<path style="fill:none;stroke:#763317;stroke-width:9;stroke-linecap:round;stroke-linejoin:round;stroke-miterlimit:10;" d="
							M735.006,534.769c-15.772-1.227-28.16-13.161-30.574-28.124l60.512-24.975c4.462,6.207,6.834,13.979,6.191,22.196
							C769.697,522.379,753.516,536.212,735.006,534.769z"/>
					</g>
					<path style="fill:#FFFFFF;" d="M896.609,456.185c0,0-9.24-0.427-1.234,92.913l-39.383-100.123l34.788-14.766L896.609,456.185z"
						/>
					<path style="fill:#EBCD93;" d="M924.101,576.394c0,0-34.645,57.838-59.396,63.547l-31.679,43.474l26.954,23.749
						C859.98,707.165,911.122,660.014,924.101,576.394z"/>
					<path style="fill:none;stroke:#763317;stroke-width:9;stroke-linecap:round;stroke-linejoin:round;stroke-miterlimit:10;" d="
						M859.98,707.165l-73.726-54.959l-11.897-8.859l-27.334-20.369l-13.272-9.902L631.408,536.79l73.023-30.146l60.512-24.975
						l124.337-51.32C889.281,430.35,993.446,578.015,859.98,707.165z"/>
					<path style="fill:none;stroke:#763317;stroke-width:9;stroke-linecap:round;stroke-linejoin:round;stroke-miterlimit:10;" d="
						M831.107,685.642L631.408,536.79L854.1,444.87C854.1,444.87,945.242,554.988,831.107,685.642z"/>
				</g>
				<g>
					<path style="fill:#56B447;" d="M850.013,497.667c0,0-33.934-0.957-23.694-28.898
						C826.319,468.769,849.302,468.578,850.013,497.667z"/>
					<path style="fill:#FFFFFF;" d="M823.797,468.437c0,0,20.741,6.355,20.922,25.872l3.247,0.548
						C847.965,494.856,844.36,466.995,823.797,468.437z"/>
					<path style="fill:#449D46;" d="M826.398,469.32c0,0-1.735,18.862,20.665,24.963c0,0-6.726,4.266-13.9-1.828
						C825.997,486.357,820.375,477.03,826.398,469.32z"/>
					<path style="fill:none;stroke:#783518;stroke-width:9;stroke-linecap:round;stroke-linejoin:round;stroke-miterlimit:10;" d="
						M825.446,469.51c0,0,22.935-1.608,25.435,27.38C850.881,496.89,816.953,498.03,825.446,469.51z"/>
				</g>
				<g>
					<path style="fill:#56B447;" d="M866.607,585.19c0,0,7.555,33.089-22.058,30.162
						C844.549,615.352,838.623,593.148,866.607,585.19z"/>
					<path style="fill:#FFFFFF;" d="M844.861,617.88c0,0,0.969-21.67,19.82-26.726l-0.29-3.278
						C864.391,587.877,838.318,598.336,844.861,617.88z"/>
					<path style="fill:#449D46;" d="M845.065,615.143c0,0,18.701-3.038,19.002-26.245c0,0,5.82,5.436,1.704,13.907
						C861.658,611.268,854.034,619.044,845.065,615.143z"/>
					<path style="fill:none;stroke:#783518;stroke-width:9;stroke-linecap:round;stroke-linejoin:round;stroke-miterlimit:10;" d="
						M845.486,616.013c0,0-7.292-21.797,20.151-31.473C865.637,584.541,875.225,617.104,845.486,616.013z"/>
				</g>
				<g>
					<path style="fill:#56B447;" d="M702.668,564.902c0,0-44.998-1.271-31.421-38.326
						C671.247,526.576,701.727,526.328,702.668,564.902z"/>
					<path style="fill:#FFFFFF;" d="M667.904,526.135c0,0,27.5,8.432,27.74,34.306l4.306,0.728
						C699.95,561.169,695.171,524.221,667.904,526.135z"/>
					<path style="fill:#449D46;" d="M671.352,527.307c0,0-2.306,25.015,27.399,33.103c0,0-8.918,5.662-18.421-2.424
						C670.819,549.901,663.367,537.531,671.352,527.307z"/>
					<path style="fill:none;stroke:#783518;stroke-width:9;stroke-linecap:round;stroke-linejoin:round;stroke-miterlimit:10;" d="
						M670.097,527.555c0,0,30.403-2.127,33.722,36.31C703.82,563.865,658.826,565.383,670.097,527.555z"/>
				</g>
				<g>
					<path style="fill:#BF9D69;" d="M820.288,510.765c21.845,0.067,15.719,22.751,15.719,22.751l-9.278-0.933
						c0,0,8.325,13.955-4.884,14.424c-12.796,0.455-7.278-13.988-7.278-13.988l-7.504,1.523
						C807.062,534.541,798.446,510.697,820.288,510.765z"/>
					<path style="fill:#FFFFFF;" d="M819.708,512.168c0,0-10.784,6.545-7.707,19.568l-4.939,2.805
						C807.062,534.541,800.172,512.019,819.708,512.168z"/>
					<g>
						<path style="fill:none;stroke:#763317;stroke-width:9;stroke-linecap:round;stroke-linejoin:round;stroke-miterlimit:10;" d="
							M814.566,533.019c0,0-5.519,14.443,7.278,13.988c13.21-0.469,4.884-14.424,4.884-14.424l9.278,0.933
							c0,0,6.126-22.684-15.719-22.751c-21.842-0.068-13.226,23.776-13.226,23.776L814.566,533.019z"/>
					</g>
				</g>
				<g>
					<path style="fill:#BD3728;" d="M864.087,538.396l6.569,7.719c1.224,1.435,1.107,3.553-0.255,4.714l-9.992,8.51
						c-1.369,1.163-3.475,0.935-4.704-0.504l-6.562-7.715c-1.231-1.44-1.117-3.556,0.247-4.721l10.001-8.506
						C860.758,536.735,862.86,536.958,864.087,538.396z"/>
					<path style="fill:#FFFFFF;" d="M852.115,545.596c0,0,6.497,11.36,9.425,10.159l-3.428,4.219l-11.378-10.152L852.115,545.596z"
						/>
					<path style="fill:none;stroke:#763317;stroke-width:9;stroke-linecap:round;stroke-linejoin:round;stroke-miterlimit:10;" d="
						M870.656,546.115c1.224,1.435,1.107,3.553-0.255,4.714l-9.992,8.51c-1.369,1.163-3.475,0.935-4.704-0.504l-6.562-7.715
						c-1.231-1.44-1.117-3.556,0.247-4.721l10.001-8.506c1.366-1.159,3.468-0.935,4.695,0.502L870.656,546.115z"/>
				</g>
				<g>
					<path style="fill:#BD3728;" d="M733.352,550.759l5.83,6.846c1.088,1.278,0.987,3.156-0.23,4.188l-8.866,7.551
						c-1.22,1.037-3.082,0.835-4.173-0.448l-5.828-6.848c-1.091-1.277-0.991-3.156,0.228-4.189l8.866-7.549
						C730.396,549.274,732.261,549.477,733.352,550.759z"/>
					<path style="fill:#FFFFFF;" d="M722.729,557.149c0,0,5.762,10.082,8.364,9.015l-3.045,3.744l-10.099-9.01L722.729,557.149z"/>
					<path style="fill:none;stroke:#763317;stroke-width:9;stroke-linecap:round;stroke-linejoin:round;stroke-miterlimit:10;" d="
						M739.182,557.605c1.088,1.278,0.987,3.156-0.23,4.188l-8.866,7.551c-1.22,1.037-3.082,0.835-4.173-0.448l-5.828-6.848
						c-1.091-1.277-0.991-3.156,0.228-4.189l8.866-7.549c1.217-1.037,3.082-0.834,4.173,0.448L739.182,557.605z"/>
				</g>
				<g>
					<g>
						<path style="fill:#39B24A;" d="M807.391,492.95c-1.838,7.081-3.177,11.732-10.068,11.664
							c-6.872-0.067-11.24-7.048-11.24-7.048c-3.01-5.593-0.419-15.562,7.561-15.889
							C801.632,481.347,809.233,485.878,807.391,492.95z M798.72,493.617c0.523-1.995-0.244-3.927-1.715-4.304
							c-1.464-0.385-3.075,0.929-3.591,2.926c-0.523,1.997,0.243,3.928,1.707,4.309C796.597,496.929,798.205,495.619,798.72,493.617
							z"/>
						<path style="fill:#D0D18E;" d="M797.006,489.313c1.47,0.377,2.238,2.309,1.715,4.304c-0.516,2.003-2.124,3.312-3.598,2.931
							c-1.464-0.382-2.23-2.312-1.707-4.309C793.931,490.242,795.542,488.927,797.006,489.313z"/>
					</g>
					<g>
						<path style="fill:none;stroke:#763317;stroke-width:9;stroke-linecap:round;stroke-linejoin:round;stroke-miterlimit:10;" d="
							M786.083,497.566c-3.01-5.593-0.419-15.562,7.561-15.889c7.989-0.33,15.59,4.201,13.748,11.273
							c-1.838,7.081-3.177,11.732-10.068,11.664C790.451,504.547,786.083,497.566,786.083,497.566z"/>
					</g>
				</g>
				<g>
					<g>
						<path style="fill:#39B24A;" d="M836.977,657.343c-1.193,4.585-2.06,7.602-6.522,7.558c-4.453-0.049-7.282-4.566-7.282-4.566
							c-1.958-3.626-0.276-10.083,4.899-10.299C833.246,649.824,838.171,652.763,836.977,657.343z M831.362,657.776
							c0.335-1.295-0.165-2.544-1.114-2.795c-0.947-0.247-1.99,0.6-2.324,1.904c-0.341,1.289,0.159,2.539,1.104,2.786
							C829.982,659.92,831.024,659.073,831.362,657.776z"/>
						<path style="fill:#D0D18E;" d="M830.248,654.981c0.95,0.25,1.449,1.5,1.114,2.795c-0.338,1.297-1.38,2.144-2.334,1.895
							c-0.946-0.247-1.445-1.497-1.104-2.786C828.258,655.581,829.301,654.734,830.248,654.981z"/>
					</g>
					<g>
						<path style="fill:none;stroke:#763317;stroke-width:9;stroke-linecap:round;stroke-linejoin:round;stroke-miterlimit:10;" d="
							M823.173,660.335c-1.958-3.626-0.276-10.083,4.899-10.299c5.173-0.212,10.099,2.727,8.905,7.307
							c-1.193,4.585-2.06,7.602-6.522,7.558C826.002,664.852,823.173,660.335,823.173,660.335z"/>
					</g>
				</g>
			</g>
			<g>
				<g>
					<g>
						<path style="fill:#E8E0A6;" d="M602.137,825.729l8.497-91.563l1.366-14.778l3.152-33.938l1.528-16.482l11.794-127.11
							l63.778,46.625l52.843,38.638l108.585,79.393C853.681,706.513,781.91,872.355,602.137,825.729z"/>
					</g>
					<g>
						<path style="fill:#EEB51D;" d="M605.469,789.855l14.305-154.209l1.442-15.565l0.148-1.517l2.218-23.931l4.893-52.779
							l194.489,142.201C822.964,684.055,776.455,819.216,605.469,789.855z"/>
					</g>
					<polygon style="fill:#FFFFFF;" points="810.635,708.722 632.503,551.817 817.084,686.075 					"/>
					<path style="fill:#F58921;" d="M702.698,784.939c0,0-73.997-97.061-71.638-235.966l-27.034,238.055
						C604.026,787.029,652.841,797.389,702.698,784.939z"/>
					<path style="fill:#FFFFFF;" d="M835.448,726.227c0,0-4.453-8.103-79.951,47.357l64.946-85.783l30.724,22.003L835.448,726.227z"
						/>
					<path style="fill:#EBCD93;" d="M747.167,812.322c0,0-67.425,0.56-85.19-17.59l-53.608-4.388l-6.232,35.385
						C602.137,825.729,669.021,844.811,747.167,812.322z"/>
					<path style="fill:none;stroke:#763317;stroke-width:9;stroke-linecap:round;stroke-linejoin:round;stroke-miterlimit:10;" d="
						M602.137,825.729l8.497-91.563l1.366-14.778l3.152-33.938l1.528-16.482l11.794-127.11l63.778,46.625l52.843,38.638
						l108.585,79.393C853.681,706.513,781.91,872.355,602.137,825.729z"/>
					<path style="fill:none;stroke:#763317;stroke-width:9;stroke-linecap:round;stroke-linejoin:round;stroke-miterlimit:10;" d="
						M605.464,789.861l23.011-248.003l194.48,142.191C822.955,684.049,776.453,819.216,605.464,789.861z"/>
				</g>
				<g>
					<path style="fill:#BD3728;" d="M737.46,738.28l-2.792-6.944c-0.523-1.299,0.053-2.753,1.283-3.251l8.994-3.616
						c1.228-0.499,2.655,0.152,3.179,1.451l2.79,6.949c0.526,1.297-0.052,2.746-1.285,3.242l-8.993,3.622
						C739.404,740.227,737.983,739.575,737.46,738.28z"/>
					<path style="fill:#FFFFFF;" d="M747.535,736.038c0,0-1.891-9.481-4.22-9.33l3.389-2.143l5.593,9.773L747.535,736.038z"/>
					<path style="fill:none;stroke:#763317;stroke-width:9;stroke-linecap:round;stroke-linejoin:round;stroke-miterlimit:10;" d="
						M734.668,731.336c-0.523-1.299,0.053-2.753,1.283-3.251l8.994-3.616c1.228-0.499,2.655,0.152,3.179,1.451l2.79,6.949
						c0.526,1.297-0.052,2.746-1.285,3.242l-8.993,3.622c-1.232,0.495-2.653-0.157-3.176-1.452L734.668,731.336z"/>
				</g>
				<g>
					<path style="fill:#BD3728;" d="M638.471,585.414l-2.793-6.945c-0.523-1.297,0.058-2.749,1.285-3.248l8.993-3.616
						c1.23-0.499,2.656,0.153,3.176,1.45l2.799,6.946c0.517,1.299-0.061,2.75-1.285,3.247l-8.999,3.618
						C640.415,587.361,638.995,586.712,638.471,585.414z"/>
					<path style="fill:#FFFFFF;" d="M648.548,583.177c0,0-1.895-9.481-4.225-9.332l3.395-2.147l5.59,9.775L648.548,583.177z"/>
					<path style="fill:none;stroke:#763317;stroke-width:9;stroke-linecap:round;stroke-linejoin:round;stroke-miterlimit:10;" d="
						M635.677,578.469c-0.523-1.297,0.058-2.749,1.285-3.248l8.993-3.616c1.23-0.499,2.656,0.153,3.176,1.45l2.799,6.946
						c0.517,1.299-0.061,2.75-1.285,3.247l-8.999,3.618c-1.232,0.495-2.651-0.154-3.176-1.452L635.677,578.469z"/>
				</g>
				<g>
					<path style="fill:#BD3728;" d="M693.553,622.875l1.635-7.306c0.307-1.362,1.601-2.238,2.9-1.947l9.46,2.113
						c1.294,0.292,2.101,1.633,1.793,2.998l-1.633,7.307c-0.305,1.36-1.605,2.23-2.899,1.946l-9.465-2.113
						C694.049,625.579,693.249,624.239,693.553,622.875z"/>
					<path style="fill:#FFFFFF;" d="M703.126,626.739c0,0,3.814-8.883,1.808-10.083l4.013,0.154l-0.938,11.222L703.126,626.739z"/>
					<path style="fill:none;stroke:#763317;stroke-width:9;stroke-linecap:round;stroke-linejoin:round;stroke-miterlimit:10;" d="
						M695.187,615.569c0.307-1.362,1.601-2.238,2.9-1.947l9.46,2.113c1.294,0.292,2.101,1.633,1.793,2.998l-1.633,7.307
						c-0.305,1.36-1.605,2.23-2.899,1.946l-9.465-2.113c-1.295-0.293-2.095-1.633-1.792-2.998L695.187,615.569z"/>
				</g>
				<g>
					<path style="fill:#BD3728;" d="M638.662,682.281l-7.121-2.316c-1.334-0.427-2.076-1.806-1.669-3.066l2.999-9.22
						c0.405-1.264,1.817-1.937,3.146-1.507l7.122,2.309c1.332,0.434,2.075,1.808,1.666,3.072l-2.995,9.222
						C641.405,682.032,639.988,682.709,638.662,682.281z"/>
					<path style="fill:#FFFFFF;" d="M643.404,673.109c0,0-8.485-4.629-9.865-2.737l0.528-3.989l11.092,1.986L643.404,673.109z"/>
					<path style="fill:none;stroke:#763317;stroke-width:9;stroke-linecap:round;stroke-linejoin:round;stroke-miterlimit:10;" d="
						M631.541,679.965c-1.334-0.427-2.076-1.806-1.669-3.066l2.999-9.22c0.405-1.264,1.817-1.937,3.146-1.507l7.122,2.309
						c1.332,0.434,2.075,1.808,1.666,3.072l-2.995,9.222c-0.406,1.258-1.823,1.935-3.149,1.507L631.541,679.965z"/>
				</g>
				<g>
					<path style="fill:#BD3728;" d="M628.739,773.326l0.32-7.482c0.058-1.396,1.181-2.479,2.513-2.426l9.684,0.409
						c1.323,0.061,2.352,1.239,2.294,2.636l-0.322,7.481c-0.053,1.394-1.187,2.481-2.506,2.423l-9.689-0.407
						C629.711,775.9,628.684,774.725,628.739,773.326z"/>
					<path style="fill:#FFFFFF;" d="M638.847,775.44c0,0,2.184-9.422-0.006-10.241l3.979-0.556l1.067,11.211L638.847,775.44z"/>
					<path style="fill:none;stroke:#763317;stroke-width:9;stroke-linecap:round;stroke-linejoin:round;stroke-miterlimit:10;" d="
						M629.059,765.844c0.058-1.396,1.181-2.479,2.513-2.426l9.684,0.409c1.323,0.061,2.352,1.239,2.294,2.636l-0.322,7.481
						c-0.053,1.394-1.187,2.481-2.506,2.423l-9.689-0.407c-1.323-0.059-2.35-1.234-2.295-2.633L629.059,765.844z"/>
				</g>
				<g>
					<path style="fill:#BD3728;" d="M668.061,682.759l-7.26-1.843c-1.352-0.338-2.187-1.663-1.861-2.949l2.39-9.4
						c0.318-1.285,1.692-2.048,3.041-1.706l7.26,1.842c1.354,0.344,2.186,1.669,1.864,2.956l-2.387,9.397
						C670.779,682.341,669.41,683.102,668.061,682.759z"/>
					<path style="fill:#FFFFFF;" d="M672.196,673.305c0,0-8.77-4.069-10.025-2.092l0.27-4.008l11.193,1.257L672.196,673.305z"/>
					<path style="fill:none;stroke:#763317;stroke-width:9;stroke-linecap:round;stroke-linejoin:round;stroke-miterlimit:10;" d="
						M660.801,680.916c-1.352-0.338-2.187-1.663-1.861-2.949l2.39-9.4c0.318-1.285,1.692-2.048,3.041-1.706l7.26,1.842
						c1.354,0.344,2.186,1.669,1.864,2.956l-2.387,9.397c-0.329,1.285-1.698,2.045-3.047,1.703L660.801,680.916z"/>
				</g>
				<g>
					<path style="fill:#BD3728;" d="M746.566,667.429l-2.795-6.949c-0.523-1.289,0.055-2.747,1.289-3.244l8.992-3.619
						c1.231-0.496,2.648,0.159,3.176,1.449l2.795,6.952c0.517,1.295-0.056,2.747-1.289,3.244l-8.992,3.622
						C748.508,669.381,747.083,668.726,746.566,667.429z"/>
					<path style="fill:#FFFFFF;" d="M756.646,665.189c0,0-1.895-9.483-4.229-9.326l3.392-2.155l5.594,9.782L756.646,665.189z"/>
					<path style="fill:none;stroke:#763317;stroke-width:9;stroke-linecap:round;stroke-linejoin:round;stroke-miterlimit:10;" d="
						M743.771,660.481c-0.523-1.289,0.055-2.747,1.289-3.244l8.992-3.619c1.231-0.496,2.648,0.159,3.176,1.449l2.795,6.952
						c0.517,1.295-0.056,2.747-1.289,3.244l-8.992,3.622c-1.234,0.496-2.658-0.159-3.176-1.455L743.771,660.481z"/>
				</g>
				<g>
					<g>
						<path style="fill:#39B24A;" d="M770.289,705.203c-4.066-9.062-6.606-15.124,0.747-20.911c7.346-5.769,17.898-2.1,17.898-2.1
							c7.952,3.364,13.681,16.128,5.507,23.264C786.262,712.596,774.358,714.259,770.289,705.203z M778.907,697.122
							c1.151,2.559,3.605,3.952,5.484,3.106c1.873-0.84,2.461-3.595,1.318-6.153c-1.152-2.561-3.604-3.952-5.488-3.106
							C778.349,691.809,777.762,694.569,778.907,697.122z"/>
						<path style="fill:#D0D18E;" d="M784.392,700.228c-1.879,0.846-4.333-0.547-5.484-3.106c-1.146-2.553-0.559-5.313,1.314-6.153
							c1.884-0.846,4.336,0.545,5.488,3.106C786.853,696.633,786.265,699.388,784.392,700.228z"/>
					</g>
					<g>
						<path style="fill:none;stroke:#763317;stroke-width:9;stroke-linecap:round;stroke-linejoin:round;stroke-miterlimit:10;" d="
							M788.934,682.192c7.952,3.364,13.681,16.128,5.507,23.264c-8.178,7.14-20.083,8.802-24.152-0.253
							c-4.066-9.062-6.606-15.124,0.747-20.911C778.381,678.523,788.934,682.192,788.934,682.192z"/>
					</g>
				</g>
				<g>
					<g>
						<path style="fill:#39B24A;" d="M726.59,678.032c-9.505,2.875-15.847,4.618-20.64-3.419c-4.78-8.026,0.211-18.023,0.211-18.023
							c4.354-7.449,17.752-11.495,23.776-2.473C735.975,663.142,736.091,675.157,726.59,678.032z M719.685,668.447
							c2.685-0.809,4.382-3.065,3.785-5.036c-0.597-1.966-3.256-2.903-5.939-2.095c-2.687,0.812-4.381,3.069-3.783,5.037
							C714.342,668.32,717,669.256,719.685,668.447z"/>
						<path style="fill:#D0D18E;" d="M723.469,663.412c0.597,1.971-1.1,4.226-3.785,5.036c-2.685,0.809-5.342-0.128-5.938-2.094
							c-0.597-1.968,1.097-4.225,3.783-5.037C720.214,660.509,722.872,661.445,723.469,663.412z"/>
					</g>
					<g>
						<path style="fill:none;stroke:#763317;stroke-width:9;stroke-linecap:round;stroke-linejoin:round;stroke-miterlimit:10;" d="
							M706.161,656.591c4.354-7.449,17.752-11.495,23.776-2.473c6.039,9.025,6.154,21.04-3.346,23.915
							c-9.505,2.875-15.847,4.618-20.64-3.419C701.17,666.588,706.161,656.591,706.161,656.591z"/>
					</g>
				</g>
				<g>
					<g>
						<path style="fill:#39B24A;" d="M667.578,642.372c-14.248,4.311-23.758,6.92-30.942-5.119
							c-7.165-12.033,0.321-27.019,0.321-27.019c6.523-11.165,26.6-17.232,35.635-3.709
							C681.633,620.055,681.819,638.064,667.578,642.372z M657.223,628.005c4.023-1.214,6.562-4.586,5.668-7.544
							c-0.892-2.953-4.877-4.354-8.897-3.136c-4.025,1.215-6.566,4.596-5.676,7.543
							C649.217,627.818,653.198,629.223,657.223,628.005z"/>
						<path style="fill:#D0D18E;" d="M662.891,620.46c0.893,2.958-1.645,6.331-5.668,7.544c-4.025,1.218-8.005-0.187-8.905-3.137
							c-0.891-2.947,1.651-6.328,5.676-7.543C658.014,616.107,661.999,617.507,662.891,620.46z"/>
					</g>
					<g>
						<path style="fill:none;stroke:#763317;stroke-width:9;stroke-linecap:round;stroke-linejoin:round;stroke-miterlimit:10;" d="
							M636.958,610.234c6.523-11.165,26.6-17.232,35.635-3.709c9.04,13.53,9.226,31.539-5.015,35.847
							c-14.248,4.311-23.758,6.92-30.942-5.119C629.471,625.22,636.958,610.234,636.958,610.234z"/>
					</g>
				</g>
				<g>
					<g>
						<path style="fill:#39B24A;" d="M707.739,772.894c-14.253,4.305-23.761,6.918-30.943-5.124
							c-7.161-12.026,0.317-27.012,0.317-27.012c6.529-11.169,26.602-17.233,35.637-3.711
							C721.793,750.579,721.976,768.587,707.739,772.894z M697.382,758.524c4.022-1.211,6.566-4.589,5.67-7.541
							c-0.892-2.955-4.875-4.357-8.902-3.137c-4.02,1.212-6.562,4.588-5.668,7.547C689.374,758.341,693.365,759.744,697.382,758.524
							z"/>
						<path style="fill:#D0D18E;" d="M703.052,750.983c0.897,2.952-1.648,6.331-5.67,7.541c-4.017,1.22-8.008-0.184-8.9-3.131
							c-0.893-2.959,1.648-6.335,5.668-7.547C698.176,746.626,702.16,748.028,703.052,750.983z"/>
					</g>
					<g>
						<path style="fill:none;stroke:#763317;stroke-width:9;stroke-linecap:round;stroke-linejoin:round;stroke-miterlimit:10;" d="
							M677.113,740.758c6.529-11.169,26.602-17.233,35.637-3.711c9.044,13.531,9.226,31.539-5.01,35.847
							c-14.253,4.305-23.761,6.918-30.943-5.124C669.635,755.745,677.113,740.758,677.113,740.758z"/>
					</g>
				</g>
				<g>
					<g>
						<path style="fill:#39B24A;" d="M642.015,727.523c-5.883,1.775-9.806,2.855-12.765-2.115
							c-2.955-4.963,0.132-11.147,0.132-11.147c2.693-4.613,10.978-7.113,14.706-1.534
							C647.823,718.31,647.9,725.745,642.015,727.523z M637.746,721.594c1.658-0.499,2.707-1.898,2.337-3.116
							c-0.365-1.215-2.014-1.799-3.671-1.297c-1.661,0.504-2.709,1.897-2.34,3.112C634.443,721.517,636.083,722.092,637.746,721.594
							z"/>
						<path style="fill:#D0D18E;" d="M640.083,718.478c0.37,1.218-0.679,2.617-2.337,3.116c-1.663,0.498-3.303-0.077-3.674-1.301
							c-0.369-1.215,0.679-2.608,2.34-3.112C638.069,716.679,639.719,717.263,640.083,718.478z"/>
					</g>
					<g>
						<path style="fill:none;stroke:#763317;stroke-width:9;stroke-linecap:round;stroke-linejoin:round;stroke-miterlimit:10;" d="
							M629.382,714.262c2.693-4.613,10.978-7.113,14.706-1.534c3.734,5.582,3.812,13.017-2.073,14.795
							c-5.883,1.775-9.806,2.855-12.765-2.115C626.295,720.446,629.382,714.262,629.382,714.262z"/>
					</g>
				</g>
				<g>
					<g>
						<path style="fill:#39B24A;" d="M728.139,714.288c-5.88,1.772-9.803,2.851-12.765-2.118
							c-2.959-4.964,0.132-11.148,0.132-11.148c2.696-4.612,10.976-7.113,14.705-1.529
							C733.945,705.071,734.019,712.512,728.139,714.288z M723.871,708.358c1.658-0.504,2.709-1.898,2.343-3.119
							c-0.375-1.212-2.018-1.795-3.678-1.295c-1.661,0.505-2.709,1.897-2.343,3.117C720.565,708.279,722.21,708.862,723.871,708.358
							z"/>
						<path style="fill:#D0D18E;" d="M726.214,705.238c0.366,1.221-0.685,2.615-2.343,3.119c-1.661,0.504-3.306-0.079-3.678-1.298
							c-0.366-1.22,0.682-2.611,2.343-3.117C724.196,703.444,725.839,704.026,726.214,705.238z"/>
					</g>
					<g>
						<path style="fill:none;stroke:#763317;stroke-width:9;stroke-linecap:round;stroke-linejoin:round;stroke-miterlimit:10;" d="
							M715.506,701.022c2.696-4.612,10.976-7.113,14.705-1.529c3.734,5.578,3.808,13.018-2.072,14.795
							c-5.88,1.772-9.803,2.851-12.765-2.118C712.414,707.206,715.506,701.022,715.506,701.022z"/>
					</g>
				</g>
				<g>
					<g>
						<path style="fill:#39B24A;" d="M685.128,709.529c-7,2.116-11.664,3.396-15.2-2.513c-3.518-5.908,0.161-13.273,0.161-13.273
							c3.204-5.479,13.066-8.466,17.506-1.821C692.04,698.565,692.126,707.417,685.128,709.529z M680.05,702.473
							c1.966-0.599,3.217-2.254,2.779-3.703c-0.436-1.455-2.395-2.144-4.369-1.545c-1.98,0.593-3.225,2.257-2.788,3.703
							C676.111,702.383,678.066,703.072,680.05,702.473z"/>
						<path style="fill:#D0D18E;" d="M682.828,698.77c0.439,1.449-0.812,3.105-2.779,3.703c-1.984,0.599-3.939-0.09-4.378-1.545
							c-0.437-1.446,0.808-3.111,2.788-3.703C680.434,696.626,682.393,697.315,682.828,698.77z"/>
					</g>
					<g>
						<path style="fill:none;stroke:#763317;stroke-width:9;stroke-linecap:round;stroke-linejoin:round;stroke-miterlimit:10;" d="
							M670.09,693.742c3.204-5.479,13.066-8.466,17.506-1.821c4.444,6.645,4.53,15.496-2.467,17.608
							c-7,2.116-11.664,3.396-15.2-2.513C666.41,701.107,670.09,693.742,670.09,693.742z"/>
					</g>
				</g>
				<g>
					<g>
						<path style="fill:#39B24A;" d="M659.373,757.536c-7,2.116-11.67,3.399-15.2-2.513c-3.518-5.911,0.16-13.27,0.16-13.27
							c3.205-5.487,13.066-8.469,17.507-1.826C666.276,746.576,666.372,755.42,659.373,757.536z M654.287,750.481
							c1.975-0.599,3.226-2.258,2.786-3.703c-0.439-1.454-2.395-2.143-4.372-1.546c-1.975,0.599-3.226,2.26-2.787,3.708
							C650.357,750.392,652.319,751.076,654.287,750.481z"/>
						<path style="fill:#D0D18E;" d="M657.073,746.778c0.44,1.445-0.811,3.104-2.786,3.703c-1.968,0.596-3.93-0.089-4.373-1.541
							c-0.439-1.448,0.812-3.109,2.787-3.708C654.678,744.635,656.634,745.324,657.073,746.778z"/>
					</g>
					<g>
						<path style="fill:none;stroke:#763317;stroke-width:9;stroke-linecap:round;stroke-linejoin:round;stroke-miterlimit:10;" d="
							M644.333,741.752c3.205-5.487,13.066-8.469,17.507-1.826c4.435,6.649,4.532,15.493-2.467,17.609
							c-7,2.116-11.67,3.399-15.2-2.513C640.655,749.112,644.333,741.752,644.333,741.752z"/>
					</g>
				</g>
			</g>
		</g>
	</g>
	<g>
		<g>
			<path style="fill:#5B2511;" d="M386.202,892.385c0,3.733-0.4,7.098-1.2,10.094c-0.8,2.996-1.969,5.545-3.505,7.646
				c-1.538,2.102-3.451,3.717-5.741,4.847c-2.29,1.129-4.91,1.693-7.858,1.693c-1.224,0-2.345-0.117-3.364-0.352
				c-1.02-0.235-2.008-0.597-2.965-1.082c-0.957-0.486-1.905-1.09-2.847-1.812c-0.941-0.722-1.914-1.568-2.918-2.541v19.763
				c0,0.313-0.094,0.596-0.282,0.847c-0.188,0.251-0.51,0.463-0.964,0.636c-0.456,0.172-1.059,0.306-1.812,0.4
				c-0.753,0.095-1.71,0.142-2.87,0.142c-1.161,0-2.118-0.047-2.871-0.142c-0.753-0.094-1.357-0.228-1.812-0.4
				c-0.455-0.173-0.776-0.385-0.964-0.636c-0.189-0.251-0.283-0.533-0.283-0.847V872.01c0-0.313,0.078-0.588,0.235-0.823
				c0.157-0.235,0.431-0.431,0.824-0.588c0.392-0.157,0.909-0.274,1.553-0.353c0.643-0.077,1.451-0.117,2.423-0.117
				c0.941,0,1.733,0.04,2.376,0.117c0.643,0.079,1.161,0.196,1.553,0.353c0.392,0.157,0.666,0.353,0.823,0.588
				c0.157,0.235,0.235,0.511,0.235,0.823v4.941c1.224-1.255,2.423-2.36,3.6-3.317c1.176-0.957,2.376-1.757,3.6-2.4
				c1.224-0.643,2.486-1.121,3.788-1.435c1.301-0.313,2.69-0.471,4.165-0.471c3.074,0,5.693,0.604,7.858,1.811
				c2.165,1.208,3.929,2.863,5.294,4.964c1.364,2.103,2.36,4.549,2.988,7.341C385.888,886.237,386.202,889.217,386.202,892.385z
				 M373.874,893.231c0-1.788-0.134-3.505-0.4-5.152c-0.267-1.646-0.722-3.112-1.365-4.399c-0.643-1.286-1.49-2.313-2.541-3.082
				c-1.051-0.769-2.361-1.153-3.929-1.153c-0.784,0-1.561,0.118-2.329,0.354c-0.769,0.235-1.553,0.62-2.353,1.152
				c-0.8,0.534-1.623,1.224-2.471,2.07c-0.847,0.848-1.741,1.898-2.682,3.153v13.834c1.663,2.102,3.247,3.726,4.753,4.87
				c1.505,1.145,3.074,1.718,4.705,1.718c1.537,0,2.847-0.392,3.929-1.177c1.083-0.783,1.968-1.811,2.659-3.082
				c0.689-1.271,1.2-2.705,1.529-4.306C373.71,896.432,373.874,894.832,373.874,893.231z"/>
			<path style="fill:#5B2511;" d="M408.412,857.8c0,2.384-0.486,4.031-1.458,4.94c-0.973,0.91-2.776,1.364-5.411,1.364
				c-2.667,0-4.463-0.438-5.388-1.317c-0.925-0.878-1.388-2.462-1.388-4.752c0-2.384,0.478-4.039,1.436-4.965
				c0.957-0.925,2.768-1.388,5.435-1.388c2.635,0,4.423,0.446,5.364,1.341C407.942,853.917,408.412,855.51,408.412,857.8z
				 M407.518,913.983c0,0.313-0.094,0.588-0.282,0.823c-0.188,0.235-0.51,0.432-0.964,0.588c-0.456,0.157-1.059,0.274-1.812,0.354
				c-0.753,0.077-1.71,0.117-2.87,0.117c-1.161,0-2.118-0.04-2.871-0.117c-0.753-0.079-1.357-0.196-1.812-0.354
				c-0.455-0.156-0.776-0.352-0.964-0.588c-0.189-0.235-0.283-0.51-0.283-0.823v-41.879c0-0.313,0.094-0.589,0.283-0.824
				c0.188-0.234,0.509-0.438,0.964-0.611c0.455-0.172,1.059-0.306,1.812-0.399c0.753-0.095,1.709-0.142,2.871-0.142
				c1.16,0,2.117,0.047,2.87,0.142c0.753,0.094,1.356,0.228,1.812,0.399c0.454,0.173,0.776,0.377,0.964,0.611
				c0.188,0.235,0.282,0.511,0.282,0.824V913.983z"/>
			<path style="fill:#5B2511;" d="M448.691,910.736c0,0.91-0.047,1.687-0.141,2.329c-0.094,0.644-0.22,1.153-0.376,1.529
				c-0.157,0.377-0.361,0.636-0.611,0.776c-0.252,0.142-0.534,0.212-0.847,0.212h-27.433c-0.847,0-1.499-0.282-1.953-0.847
				c-0.455-0.565-0.683-1.49-0.683-2.776v-2.165c0-0.564,0.024-1.074,0.071-1.529c0.047-0.454,0.141-0.894,0.282-1.317
				c0.141-0.423,0.33-0.854,0.565-1.294c0.235-0.438,0.541-0.925,0.917-1.459l15.716-24.28h-14.87c-0.596,0-1.075-0.376-1.435-1.129
				c-0.361-0.753-0.541-1.96-0.541-3.623c0-0.91,0.039-1.671,0.118-2.282c0.078-0.612,0.195-1.098,0.353-1.459
				c0.156-0.36,0.36-0.619,0.611-0.776c0.251-0.156,0.549-0.235,0.894-0.235h25.645c0.439,0,0.815,0.047,1.129,0.142
				c0.314,0.094,0.572,0.267,0.776,0.517c0.204,0.251,0.36,0.596,0.471,1.035c0.109,0.439,0.164,0.988,0.164,1.646v2.306
				c0,0.628-0.032,1.185-0.094,1.671c-0.063,0.486-0.157,0.949-0.282,1.388c-0.126,0.44-0.306,0.879-0.541,1.317
				c-0.235,0.44-0.51,0.91-0.823,1.412l-15.622,24.233h16.563c0.282,0,0.548,0.063,0.8,0.188c0.251,0.125,0.463,0.36,0.635,0.705
				c0.172,0.346,0.306,0.823,0.4,1.436C448.644,909.019,448.691,909.795,448.691,910.736z"/>
			<path style="fill:#5B2511;" d="M486.994,910.736c0,0.91-0.047,1.687-0.141,2.329c-0.094,0.644-0.22,1.153-0.376,1.529
				c-0.157,0.377-0.361,0.636-0.611,0.776c-0.251,0.142-0.534,0.212-0.847,0.212h-27.433c-0.847,0-1.499-0.282-1.953-0.847
				c-0.455-0.565-0.683-1.49-0.683-2.776v-2.165c0-0.564,0.024-1.074,0.071-1.529c0.047-0.454,0.141-0.894,0.282-1.317
				c0.141-0.423,0.33-0.854,0.565-1.294c0.235-0.438,0.541-0.925,0.918-1.459l15.716-24.28h-14.87c-0.596,0-1.075-0.376-1.435-1.129
				c-0.361-0.753-0.541-1.96-0.541-3.623c0-0.91,0.039-1.671,0.118-2.282c0.078-0.612,0.195-1.098,0.353-1.459
				c0.156-0.36,0.36-0.619,0.611-0.776c0.251-0.156,0.549-0.235,0.894-0.235h25.645c0.439,0,0.815,0.047,1.129,0.142
				c0.313,0.094,0.572,0.267,0.776,0.517c0.204,0.251,0.36,0.596,0.471,1.035c0.109,0.439,0.165,0.988,0.165,1.646v2.306
				c0,0.628-0.032,1.185-0.094,1.671c-0.063,0.486-0.157,0.949-0.282,1.388c-0.125,0.44-0.306,0.879-0.541,1.317
				c-0.235,0.44-0.51,0.91-0.823,1.412l-15.623,24.233h16.564c0.282,0,0.548,0.063,0.8,0.188c0.251,0.125,0.462,0.36,0.635,0.705
				c0.172,0.346,0.306,0.823,0.4,1.436C486.947,909.019,486.994,909.795,486.994,910.736z"/>
			<path style="fill:#5B2511;" d="M530.473,914.124c0,0.44-0.158,0.785-0.471,1.035c-0.314,0.252-0.808,0.432-1.482,0.541
				c-0.675,0.11-1.67,0.165-2.988,0.165c-1.412,0-2.439-0.055-3.082-0.165c-0.644-0.109-1.099-0.289-1.365-0.541
				c-0.267-0.25-0.4-0.595-0.4-1.035v-3.341c-1.725,1.852-3.694,3.294-5.905,4.329c-2.212,1.035-4.666,1.553-7.364,1.553
				c-2.227,0-4.275-0.29-6.141-0.87c-1.867-0.58-3.482-1.442-4.847-2.588c-1.365-1.145-2.423-2.564-3.176-4.259
				c-0.753-1.694-1.129-3.67-1.129-5.929c0-2.447,0.478-4.572,1.435-6.376c0.956-1.804,2.384-3.294,4.282-4.471
				c1.897-1.176,4.258-2.047,7.082-2.611c2.824-0.564,6.101-0.847,9.834-0.847h4.094v-2.541c0-1.317-0.134-2.471-0.4-3.459
				c-0.267-0.988-0.706-1.811-1.317-2.47c-0.612-0.659-1.428-1.146-2.447-1.459c-1.02-0.313-2.282-0.471-3.788-0.471
				c-1.976,0-3.741,0.22-5.293,0.659c-1.553,0.44-2.926,0.925-4.117,1.458c-1.193,0.534-2.189,1.021-2.988,1.459
				c-0.8,0.44-1.451,0.659-1.953,0.659c-0.346,0-0.651-0.11-0.917-0.33c-0.267-0.219-0.487-0.533-0.659-0.94
				c-0.172-0.407-0.306-0.91-0.4-1.506c-0.094-0.596-0.141-1.255-0.141-1.977c0-0.972,0.078-1.741,0.235-2.306
				c0.157-0.565,0.455-1.074,0.894-1.529c0.439-0.454,1.207-0.957,2.306-1.506c1.098-0.549,2.384-1.059,3.858-1.529
				c1.474-0.471,3.082-0.854,4.823-1.152c1.741-0.298,3.537-0.447,5.388-0.447c3.294,0,6.109,0.322,8.447,0.965
				c2.336,0.642,4.258,1.631,5.764,2.964c1.505,1.334,2.604,3.052,3.294,5.152c0.69,2.103,1.036,4.597,1.036,7.482V914.124z
				 M518.851,896.149h-4.518c-1.914,0-3.545,0.141-4.893,0.424c-1.349,0.282-2.447,0.705-3.294,1.271
				c-0.847,0.564-1.467,1.246-1.859,2.047c-0.393,0.8-0.588,1.717-0.588,2.752c0,1.758,0.557,3.138,1.67,4.142
				c1.113,1.004,2.659,1.505,4.635,1.505c1.663,0,3.192-0.423,4.588-1.271c1.396-0.847,2.815-2.085,4.259-3.717V896.149z"/>
			<path style="fill:#5B2511;" d="M540.213,898.596c0-1.756,0.259-3.411,0.776-4.964c0.518-1.553,1.294-3.018,2.33-4.399
				c1.035-1.38,2.313-2.698,3.835-3.953c1.521-1.254,3.286-2.477,5.294-3.67c-1.129-1.442-2.11-2.8-2.941-4.07
				c-0.831-1.271-1.522-2.485-2.07-3.647c-0.549-1.16-0.958-2.267-1.224-3.317c-0.267-1.051-0.4-2.094-0.4-3.13
				c0-2.195,0.392-4.258,1.176-6.188c0.784-1.929,2.007-3.6,3.67-5.011c1.663-1.412,3.78-2.533,6.352-3.365
				c2.572-0.83,5.662-1.246,9.269-1.246c3.294,0,6.133,0.314,8.517,0.94c2.384,0.628,4.345,1.514,5.882,2.659
				c1.537,1.146,2.682,2.557,3.435,4.234c0.753,1.679,1.129,3.569,1.129,5.67c0,1.883-0.322,3.624-0.965,5.224
				c-0.643,1.6-1.616,3.122-2.917,4.564c-1.302,1.443-2.926,2.831-4.871,4.164c-1.945,1.334-4.219,2.675-6.823,4.023
				c0.847,0.973,1.795,2,2.847,3.082c1.051,1.082,2.133,2.164,3.247,3.247c1.113,1.082,2.235,2.157,3.364,3.223
				c1.129,1.067,2.227,2.056,3.294,2.965c0.407-0.627,0.776-1.349,1.106-2.165c0.329-0.815,0.611-1.678,0.847-2.588
				c0.235-0.909,0.423-1.835,0.565-2.776c0.141-0.94,0.211-1.865,0.211-2.776v-1.458c0-0.345,0.063-0.643,0.189-0.895
				c0.125-0.25,0.384-0.454,0.776-0.611c0.392-0.156,0.957-0.274,1.694-0.352c0.737-0.078,1.686-0.118,2.847-0.118
				c1.098,0,2.007,0.023,2.729,0.07c0.721,0.048,1.294,0.149,1.717,0.307c0.424,0.157,0.721,0.368,0.894,0.635
				c0.172,0.267,0.259,0.604,0.259,1.012v1.506c0,1.506-0.11,3.027-0.329,4.565c-0.22,1.537-0.542,3.035-0.965,4.493
				c-0.423,1.459-0.949,2.855-1.576,4.188c-0.628,1.333-1.318,2.58-2.07,3.74c1.098,0.848,2.047,1.553,2.847,2.118
				c0.8,0.564,1.482,1.012,2.047,1.341c0.564,0.329,1.035,0.558,1.412,0.683c0.376,0.125,0.69,0.188,0.941,0.188
				c0.345,0,0.666,0,0.965,0c0.298,0,0.541,0.11,0.729,0.33c0.188,0.22,0.329,0.611,0.423,1.176
				c0.094,0.564,0.141,1.396,0.141,2.494c0,1.161-0.023,2.07-0.071,2.729c-0.047,0.658-0.125,1.146-0.235,1.458
				c-0.11,0.314-0.299,0.573-0.565,0.776c-0.267,0.204-0.714,0.393-1.341,0.565c-0.628,0.172-1.381,0.259-2.259,0.259
				c-0.69,0-1.404-0.087-2.141-0.259c-0.737-0.173-1.592-0.503-2.565-0.988c-0.973-0.486-2.102-1.13-3.388-1.93
				c-1.287-0.8-2.776-1.827-4.47-3.082c-1.475,1.005-2.996,1.906-4.564,2.706c-1.569,0.8-3.208,1.467-4.918,2
				c-1.71,0.533-3.475,0.94-5.293,1.223c-1.82,0.283-3.765,0.424-5.835,0.424c-2.04,0-4.031-0.157-5.976-0.471
				c-1.945-0.314-3.773-0.792-5.482-1.435c-1.71-0.643-3.27-1.451-4.682-2.424c-1.412-0.972-2.62-2.125-3.624-3.458
				c-1.004-1.333-1.788-2.854-2.353-4.565C540.496,902.557,540.213,900.667,540.213,898.596z M553.012,897.938
				c0,1.349,0.251,2.588,0.753,3.717c0.502,1.13,1.224,2.102,2.165,2.918c0.941,0.816,2.109,1.451,3.506,1.905
				c1.396,0.455,3.004,0.683,4.823,0.683c0.941,0,1.874-0.086,2.8-0.259c0.925-0.172,1.835-0.407,2.729-0.706
				c0.894-0.298,1.741-0.658,2.541-1.082c0.8-0.424,1.544-0.886,2.235-1.388c-1.412-1.13-2.831-2.33-4.258-3.601
				c-1.428-1.271-2.816-2.548-4.165-3.835c-1.349-1.285-2.643-2.564-3.882-3.835c-1.24-1.271-2.345-2.47-3.317-3.6
				c-1.099,0.69-2.016,1.404-2.753,2.142c-0.737,0.737-1.341,1.482-1.811,2.234c-0.471,0.753-0.816,1.523-1.035,2.306
				C553.122,896.322,553.012,897.122,553.012,897.938z M558.283,866.834c0,0.659,0.109,1.341,0.329,2.047
				c0.219,0.706,0.525,1.443,0.918,2.212c0.392,0.769,0.886,1.584,1.482,2.446c0.596,0.863,1.271,1.797,2.023,2.8
				c1.85-1.003,3.396-1.929,4.635-2.776c1.239-0.847,2.235-1.67,2.988-2.47c0.753-0.8,1.286-1.601,1.6-2.4
				c0.313-0.8,0.471-1.623,0.471-2.47c0-0.753-0.141-1.459-0.423-2.118c-0.283-0.658-0.722-1.23-1.318-1.717
				c-0.596-0.486-1.333-0.871-2.211-1.153c-0.878-0.282-1.914-0.424-3.105-0.424c-1.318,0-2.439,0.15-3.365,0.447
				c-0.925,0.299-1.687,0.723-2.282,1.271c-0.596,0.55-1.035,1.192-1.317,1.93C558.424,865.195,558.283,865.987,558.283,866.834z"/>
			<path style="fill:#5B2511;" d="M650.274,913.983c0,0.313-0.094,0.588-0.282,0.823c-0.188,0.235-0.502,0.432-0.941,0.588
				c-0.44,0.157-1.043,0.274-1.812,0.354c-0.769,0.077-1.718,0.117-2.847,0.117c-1.161,0-2.125-0.04-2.894-0.117
				c-0.769-0.079-1.373-0.196-1.812-0.354c-0.44-0.156-0.753-0.352-0.941-0.588c-0.188-0.235-0.282-0.51-0.282-0.823v-23.951
				c0-2.039-0.149-3.639-0.447-4.8c-0.298-1.16-0.729-2.156-1.294-2.988c-0.565-0.83-1.294-1.474-2.188-1.929
				c-0.894-0.454-1.937-0.683-3.129-0.683c-1.506,0-3.028,0.55-4.565,1.647c-1.538,1.098-3.137,2.698-4.8,4.799v27.904
				c0,0.313-0.094,0.588-0.282,0.823c-0.188,0.235-0.51,0.432-0.964,0.588c-0.456,0.157-1.059,0.274-1.812,0.354
				c-0.753,0.077-1.71,0.117-2.87,0.117c-1.161,0-2.118-0.04-2.871-0.117c-0.753-0.079-1.357-0.196-1.811-0.354
				c-0.455-0.156-0.776-0.352-0.964-0.588c-0.189-0.235-0.283-0.51-0.283-0.823v-61.878c0-0.313,0.094-0.595,0.283-0.847
				c0.188-0.251,0.509-0.462,0.964-0.635c0.455-0.173,1.059-0.307,1.811-0.4c0.753-0.094,1.71-0.142,2.871-0.142
				c1.16,0,2.117,0.048,2.87,0.142c0.753,0.094,1.357,0.228,1.812,0.4c0.454,0.173,0.776,0.384,0.964,0.635
				c0.189,0.252,0.282,0.534,0.282,0.847v23.198c2.039-2.007,4.118-3.505,6.235-4.493c2.118-0.988,4.321-1.482,6.611-1.482
				c2.854,0,5.262,0.471,7.223,1.411c1.96,0.941,3.544,2.228,4.753,3.858c1.207,1.632,2.078,3.538,2.611,5.718
				c0.533,2.181,0.8,4.823,0.8,7.929V913.983z"/>
			<path style="fill:#5B2511;" d="M701.706,913.983c0,0.313-0.079,0.588-0.235,0.823c-0.157,0.235-0.431,0.432-0.823,0.588
				c-0.393,0.157-0.91,0.274-1.553,0.354c-0.644,0.077-1.452,0.117-2.423,0.117c-1.035,0-1.875-0.04-2.518-0.117
				c-0.643-0.079-1.153-0.196-1.529-0.354c-0.377-0.156-0.643-0.352-0.8-0.588c-0.157-0.235-0.235-0.51-0.235-0.823v-4.847
				c-2.322,2.51-4.682,4.392-7.082,5.646c-2.4,1.254-4.887,1.882-7.458,1.882c-2.886,0-5.31-0.471-7.27-1.411
				c-1.961-0.941-3.545-2.227-4.752-3.858c-1.208-1.631-2.07-3.521-2.588-5.671c-0.518-2.148-0.776-4.823-0.776-8.023V872.01
				c0-0.313,0.086-0.588,0.259-0.823c0.172-0.235,0.486-0.431,0.941-0.588c0.455-0.157,1.066-0.274,1.835-0.353
				c0.768-0.077,1.718-0.117,2.847-0.117c1.16,0,2.117,0.04,2.87,0.117c0.753,0.079,1.356,0.196,1.811,0.353
				c0.455,0.157,0.776,0.353,0.965,0.588c0.188,0.235,0.282,0.511,0.282,0.823v23.716c0,2.196,0.141,3.875,0.423,5.035
				c0.283,1.161,0.713,2.157,1.294,2.988c0.58,0.831,1.317,1.475,2.211,1.929c0.894,0.455,1.937,0.683,3.129,0.683
				c1.506,0,3.019-0.549,4.541-1.648c1.521-1.098,3.144-2.697,4.87-4.799V872.01c0-0.313,0.086-0.588,0.259-0.823
				c0.172-0.235,0.486-0.431,0.941-0.588c0.454-0.157,1.059-0.274,1.812-0.353c0.753-0.077,1.709-0.117,2.87-0.117
				c1.16,0,2.118,0.04,2.871,0.117c0.753,0.079,1.348,0.196,1.788,0.353c0.439,0.157,0.753,0.353,0.941,0.588
				c0.188,0.235,0.282,0.511,0.282,0.823V913.983z"/>
			<path style="fill:#5B2511;" d="M753.702,913.983c0,0.313-0.094,0.588-0.282,0.823c-0.188,0.235-0.502,0.432-0.941,0.588
				c-0.44,0.157-1.043,0.274-1.812,0.354c-0.769,0.077-1.718,0.117-2.847,0.117c-1.161,0-2.126-0.04-2.894-0.117
				c-0.769-0.079-1.373-0.196-1.812-0.354c-0.44-0.156-0.753-0.352-0.941-0.588c-0.188-0.235-0.282-0.51-0.282-0.823v-23.951
				c0-2.039-0.149-3.639-0.447-4.8c-0.298-1.16-0.729-2.156-1.294-2.988c-0.565-0.83-1.294-1.474-2.188-1.929
				c-0.894-0.454-1.937-0.683-3.129-0.683c-1.506,0-3.028,0.55-4.564,1.647c-1.538,1.098-3.137,2.698-4.8,4.799v27.904
				c0,0.313-0.094,0.588-0.282,0.823c-0.188,0.235-0.51,0.432-0.964,0.588c-0.456,0.157-1.059,0.274-1.812,0.354
				c-0.753,0.077-1.71,0.117-2.87,0.117c-1.161,0-2.118-0.04-2.871-0.117c-0.752-0.079-1.357-0.196-1.811-0.354
				c-0.455-0.156-0.776-0.352-0.964-0.588c-0.189-0.235-0.283-0.51-0.283-0.823V872.01c0-0.313,0.078-0.588,0.235-0.823
				c0.157-0.235,0.439-0.431,0.847-0.588c0.407-0.157,0.933-0.274,1.576-0.353c0.643-0.077,1.451-0.117,2.423-0.117
				c1.004,0,1.835,0.04,2.494,0.117c0.659,0.079,1.168,0.196,1.529,0.353c0.36,0.157,0.619,0.353,0.776,0.588
				c0.157,0.235,0.235,0.511,0.235,0.823v4.847c2.321-2.509,4.682-4.392,7.082-5.646c2.4-1.254,4.901-1.882,7.505-1.882
				c2.854,0,5.262,0.471,7.223,1.411c1.96,0.941,3.544,2.22,4.752,3.835c1.207,1.616,2.078,3.506,2.611,5.671
				c0.533,2.164,0.8,4.769,0.8,7.811V913.983z"/>
			<path style="fill:#5B2511;" d="M803.157,874.928c0,1.506-0.173,2.619-0.517,3.341c-0.346,0.722-0.769,1.082-1.271,1.082h-4.941
				c0.69,0.753,1.184,1.608,1.483,2.564c0.298,0.957,0.447,1.953,0.447,2.988c0,2.446-0.408,4.619-1.223,6.517
				c-0.816,1.898-1.984,3.499-3.506,4.8c-1.522,1.303-3.357,2.29-5.505,2.965c-2.149,0.675-4.541,1.012-7.176,1.012
				c-1.349,0-2.635-0.165-3.858-0.494c-1.224-0.329-2.165-0.713-2.824-1.153c-0.376,0.408-0.714,0.895-1.011,1.459
				c-0.299,0.565-0.447,1.192-0.447,1.882c0,0.91,0.4,1.655,1.2,2.235c0.8,0.581,1.921,0.902,3.365,0.965l10.211,0.376
				c2.383,0.095,4.509,0.432,6.376,1.012c1.866,0.581,3.435,1.397,4.706,2.447c1.271,1.052,2.242,2.313,2.917,3.788
				c0.674,1.475,1.012,3.152,1.012,5.034c0,2.071-0.455,4.023-1.364,5.858c-0.91,1.836-2.275,3.428-4.094,4.776
				c-1.82,1.349-4.102,2.415-6.847,3.2c-2.746,0.783-5.953,1.176-9.622,1.176c-3.576,0-6.628-0.282-9.152-0.847
				c-2.525-0.564-4.596-1.35-6.211-2.352c-1.616-1.005-2.792-2.204-3.529-3.6c-0.738-1.396-1.106-2.926-1.106-4.588
				c0-1.035,0.133-2.023,0.4-2.965c0.266-0.942,0.659-1.843,1.176-2.706c0.518-0.862,1.153-1.686,1.906-2.47
				c0.753-0.784,1.615-1.537,2.588-2.259c-1.35-0.722-2.393-1.701-3.129-2.941c-0.737-1.238-1.106-2.595-1.106-4.07
				c0-1.851,0.424-3.536,1.271-5.058c0.847-1.521,1.945-2.894,3.294-4.117c-1.099-1.099-1.976-2.416-2.635-3.953
				c-0.659-1.536-0.988-3.45-0.988-5.74c0-2.447,0.431-4.636,1.294-6.565c0.862-1.93,2.062-3.56,3.6-4.893
				c1.537-1.333,3.372-2.354,5.505-3.059c2.133-0.706,4.486-1.059,7.058-1.059c1.318,0,2.58,0.078,3.788,0.234
				c1.208,0.158,2.329,0.377,3.364,0.659h13.317c0.533,0,0.964,0.346,1.294,1.035C802.992,872.136,803.157,873.297,803.157,874.928z
				 M790.734,918.359c0-1.412-0.565-2.494-1.694-3.247c-1.129-0.753-2.682-1.16-4.658-1.224l-8.423-0.235
				c-0.816,0.597-1.467,1.17-1.953,1.718c-0.486,0.549-0.879,1.074-1.176,1.576c-0.298,0.502-0.494,0.988-0.588,1.459
				c-0.094,0.471-0.141,0.957-0.141,1.459c0,1.568,0.792,2.76,2.376,3.576c1.584,0.815,3.819,1.224,6.706,1.224
				c1.788,0,3.293-0.182,4.517-0.542c1.224-0.36,2.211-0.839,2.964-1.435c0.753-0.597,1.286-1.264,1.6-2
				C790.577,919.951,790.734,919.175,790.734,918.359z M787.958,884.856c0-2.259-0.628-4.016-1.882-5.271
				c-1.255-1.254-3.028-1.882-5.317-1.882c-1.161,0-2.181,0.196-3.059,0.588c-0.878,0.393-1.608,0.926-2.188,1.6
				c-0.581,0.675-1.012,1.459-1.294,2.352c-0.282,0.895-0.423,1.828-0.423,2.8c0,2.134,0.627,3.82,1.882,5.059
				c1.254,1.24,2.995,1.858,5.223,1.858c1.192,0,2.227-0.188,3.106-0.564c0.878-0.376,1.607-0.894,2.188-1.553
				c0.58-0.658,1.019-1.419,1.317-2.282C787.809,886.699,787.958,885.797,787.958,884.856z"/>
			<path style="fill:#5B2511;" d="M837.977,875.916c0,1.129-0.032,2.055-0.094,2.776c-0.063,0.722-0.157,1.286-0.282,1.693
				c-0.126,0.408-0.291,0.69-0.494,0.847c-0.205,0.158-0.463,0.235-0.776,0.235c-0.252,0-0.534-0.054-0.847-0.164
				c-0.314-0.109-0.667-0.228-1.059-0.354c-0.393-0.125-0.824-0.242-1.294-0.352c-0.471-0.109-0.988-0.165-1.553-0.165
				c-0.659,0-1.318,0.134-1.977,0.4c-0.659,0.267-1.341,0.683-2.047,1.247c-0.706,0.564-1.443,1.317-2.211,2.259
				c-0.769,0.94-1.593,2.102-2.471,3.481v26.163c0,0.313-0.094,0.588-0.282,0.823c-0.188,0.235-0.51,0.432-0.964,0.588
				c-0.456,0.157-1.059,0.274-1.812,0.354c-0.753,0.077-1.71,0.117-2.87,0.117c-1.161,0-2.118-0.04-2.871-0.117
				c-0.752-0.079-1.357-0.196-1.811-0.354c-0.455-0.156-0.776-0.352-0.964-0.588c-0.189-0.235-0.283-0.51-0.283-0.823V872.01
				c0-0.313,0.078-0.588,0.235-0.823c0.157-0.235,0.439-0.431,0.847-0.588c0.407-0.157,0.933-0.274,1.576-0.353
				c0.643-0.077,1.451-0.117,2.423-0.117c1.004,0,1.835,0.04,2.494,0.117c0.659,0.079,1.168,0.196,1.529,0.353
				c0.36,0.157,0.619,0.353,0.776,0.588c0.157,0.235,0.235,0.511,0.235,0.823v5.224c1.098-1.568,2.133-2.862,3.106-3.882
				c0.972-1.02,1.898-1.827,2.776-2.424c0.878-0.596,1.756-1.012,2.635-1.247c0.878-0.235,1.757-0.353,2.635-0.353
				c0.407,0,0.847,0.023,1.317,0.07c0.471,0.047,0.957,0.126,1.459,0.235c0.501,0.11,0.941,0.235,1.317,0.377
				c0.377,0.141,0.651,0.29,0.824,0.446c0.172,0.157,0.297,0.33,0.376,0.518c0.078,0.188,0.148,0.447,0.212,0.776
				c0.063,0.33,0.11,0.824,0.141,1.482C837.961,873.893,837.977,874.786,837.977,875.916z"/>
			<path style="fill:#5B2511;" d="M870.021,915.583l-5.082,14.869c-0.282,0.784-1.051,1.349-2.306,1.694
				c-1.255,0.345-3.09,0.518-5.505,0.518c-1.255,0-2.259-0.056-3.012-0.165c-0.752-0.11-1.317-0.29-1.694-0.541
				c-0.377-0.251-0.581-0.564-0.612-0.941c-0.031-0.376,0.063-0.831,0.283-1.364l5.599-14.069c-0.408-0.189-0.776-0.477-1.105-0.87
				c-0.33-0.393-0.573-0.808-0.729-1.247l-14.446-38.585c-0.408-1.098-0.612-1.937-0.612-2.518c0-0.58,0.188-1.035,0.565-1.365
				c0.376-0.329,1.011-0.557,1.905-0.682c0.894-0.125,2.078-0.188,3.553-0.188c1.349,0,2.416,0.023,3.2,0.07
				c0.784,0.047,1.396,0.165,1.836,0.354c0.439,0.188,0.768,0.478,0.988,0.87c0.219,0.393,0.439,0.949,0.659,1.671l9.881,28.092
				h0.141l9.035-28.657c0.188-0.815,0.431-1.356,0.729-1.623c0.297-0.267,0.792-0.463,1.482-0.588
				c0.69-0.125,1.898-0.188,3.624-0.188c1.348,0,2.47,0.063,3.364,0.188c0.894,0.125,1.553,0.36,1.976,0.705
				c0.424,0.346,0.635,0.809,0.635,1.389c0,0.581-0.125,1.263-0.376,2.047L870.021,915.583z"/>
		</g>
	</g>
	<g>
		<g>
			<path style="fill:#5B2511;" d="M505.772,935.498c0,0.263-0.012,0.486-0.034,0.672c-0.022,0.186-0.057,0.335-0.102,0.448
				c-0.045,0.113-0.102,0.197-0.17,0.252c-0.068,0.054-0.143,0.081-0.224,0.081h-4.401v14.167c0,0.091-0.03,0.173-0.088,0.245
				c-0.059,0.072-0.156,0.131-0.292,0.176c-0.136,0.046-0.319,0.082-0.55,0.109c-0.231,0.027-0.519,0.04-0.862,0.04
				c-0.344,0-0.632-0.013-0.863-0.04c-0.231-0.027-0.414-0.063-0.55-0.109c-0.136-0.045-0.233-0.104-0.292-0.176
				c-0.059-0.072-0.088-0.154-0.088-0.245v-14.167h-4.401c-0.091,0-0.168-0.027-0.231-0.081c-0.063-0.055-0.118-0.139-0.163-0.252
				c-0.045-0.113-0.079-0.263-0.102-0.448c-0.022-0.186-0.034-0.409-0.034-0.672c0-0.271,0.011-0.503,0.034-0.693
				c0.022-0.19,0.057-0.341,0.102-0.455c0.046-0.112,0.1-0.194,0.163-0.244c0.063-0.05,0.14-0.074,0.231-0.074h12.388
				c0.082,0,0.156,0.024,0.224,0.074c0.068,0.05,0.124,0.132,0.17,0.244c0.045,0.114,0.079,0.266,0.102,0.455
				C505.76,934.995,505.772,935.227,505.772,935.498z"/>
			<path style="fill:#5B2511;" d="M520.062,950.276c0.108,0.326,0.176,0.584,0.204,0.774c0.027,0.189-0.009,0.332-0.109,0.428
				c-0.1,0.095-0.276,0.153-0.53,0.177c-0.254,0.022-0.602,0.033-1.046,0.033c-0.462,0-0.822-0.006-1.08-0.02
				c-0.258-0.014-0.455-0.041-0.591-0.082c-0.136-0.041-0.231-0.097-0.285-0.17c-0.055-0.072-0.1-0.167-0.136-0.285l-1.182-3.531
				h-6.601l-1.114,3.437c-0.037,0.127-0.084,0.233-0.143,0.319c-0.059,0.086-0.154,0.153-0.285,0.203
				c-0.131,0.05-0.317,0.084-0.557,0.103c-0.24,0.018-0.555,0.026-0.944,0.026c-0.416,0-0.743-0.013-0.978-0.04
				c-0.235-0.027-0.398-0.093-0.489-0.197c-0.091-0.103-0.122-0.251-0.095-0.441c0.027-0.191,0.095-0.443,0.204-0.761l5.419-15.594
				c0.054-0.153,0.118-0.278,0.19-0.373c0.073-0.095,0.188-0.168,0.347-0.218c0.158-0.049,0.378-0.081,0.659-0.095
				c0.281-0.014,0.652-0.021,1.114-0.021c0.534,0,0.96,0.007,1.277,0.021c0.317,0.014,0.564,0.046,0.74,0.095
				c0.177,0.05,0.303,0.125,0.38,0.225c0.077,0.1,0.143,0.235,0.197,0.407L520.062,950.276z M511.993,937.386h-0.014l-2.486,7.471
				h4.985L511.993,937.386z"/>
			<path style="fill:#5B2511;" d="M536.28,936.761c0,0.263-0.012,0.489-0.034,0.68c-0.023,0.19-0.054,0.342-0.095,0.455
				c-0.04,0.113-0.09,0.192-0.149,0.237c-0.059,0.046-0.129,0.068-0.21,0.068c-0.118,0-0.308-0.082-0.57-0.245
				c-0.263-0.163-0.611-0.339-1.046-0.529c-0.435-0.19-0.953-0.367-1.555-0.53c-0.602-0.162-1.302-0.244-2.099-0.244
				c-0.852,0-1.621,0.148-2.309,0.442c-0.689,0.295-1.277,0.711-1.766,1.25c-0.489,0.539-0.865,1.186-1.127,1.942
				c-0.263,0.756-0.394,1.592-0.394,2.506c0,1.005,0.133,1.891,0.4,2.655c0.267,0.766,0.641,1.406,1.121,1.922
				c0.48,0.517,1.057,0.906,1.732,1.169c0.674,0.263,1.419,0.393,2.234,0.393c0.398,0,0.792-0.045,1.182-0.136
				c0.39-0.091,0.752-0.227,1.087-0.407v-4.075h-3.328c-0.163,0-0.29-0.103-0.38-0.306c-0.09-0.204-0.136-0.55-0.136-1.039
				c0-0.254,0.011-0.467,0.034-0.639c0.022-0.172,0.056-0.31,0.102-0.414s0.1-0.182,0.163-0.231
				c0.063-0.049,0.136-0.074,0.217-0.074h5.936c0.145,0,0.274,0.025,0.387,0.074c0.113,0.05,0.212,0.125,0.299,0.225
				c0.086,0.1,0.151,0.22,0.197,0.359c0.045,0.141,0.068,0.302,0.068,0.482v6.995c0,0.273-0.047,0.51-0.143,0.714
				c-0.095,0.203-0.29,0.364-0.584,0.481c-0.294,0.118-0.659,0.24-1.093,0.367c-0.435,0.127-0.885,0.235-1.352,0.326
				c-0.467,0.09-0.938,0.158-1.413,0.203c-0.476,0.046-0.953,0.068-1.433,0.068c-1.404,0-2.66-0.201-3.77-0.604
				c-1.109-0.402-2.049-0.987-2.818-1.752c-0.77-0.766-1.358-1.698-1.766-2.799c-0.408-1.1-0.611-2.347-0.611-3.741
				c0-1.441,0.217-2.733,0.652-3.879c0.435-1.145,1.05-2.118,1.847-2.92c0.797-0.802,1.759-1.415,2.887-1.841
				c1.127-0.425,2.384-0.638,3.769-0.638c0.761,0,1.454,0.052,2.078,0.156c0.625,0.104,1.171,0.23,1.637,0.38
				c0.466,0.149,0.853,0.31,1.162,0.482c0.308,0.172,0.523,0.321,0.645,0.448c0.123,0.127,0.211,0.306,0.265,0.536
				C536.252,935.967,536.28,936.309,536.28,936.761z"/>
			<path style="fill:#5B2511;" d="M555.852,950.113c0,0.272-0.011,0.5-0.034,0.686c-0.023,0.187-0.057,0.34-0.102,0.462
				c-0.045,0.122-0.102,0.211-0.17,0.266c-0.068,0.054-0.147,0.081-0.238,0.081h-8.055c-0.299,0-0.55-0.088-0.754-0.265
				c-0.204-0.177-0.306-0.464-0.306-0.862v-15.961c0-0.09,0.029-0.172,0.088-0.244c0.059-0.072,0.156-0.131,0.292-0.177
				c0.136-0.045,0.319-0.081,0.55-0.108c0.231-0.027,0.518-0.041,0.862-0.041c0.354,0,0.643,0.014,0.87,0.041
				c0.226,0.027,0.407,0.064,0.543,0.108c0.136,0.046,0.233,0.105,0.292,0.177c0.059,0.072,0.088,0.154,0.088,0.244v14.141h5.528
				c0.091,0,0.17,0.024,0.238,0.074c0.068,0.05,0.125,0.132,0.17,0.245s0.079,0.263,0.102,0.448
				C555.841,949.613,555.852,949.842,555.852,950.113z"/>
			<path style="fill:#5B2511;" d="M561.544,951.118c0,0.091-0.029,0.173-0.088,0.245c-0.059,0.072-0.156,0.131-0.293,0.176
				c-0.136,0.046-0.317,0.082-0.543,0.109c-0.227,0.027-0.516,0.04-0.87,0.04c-0.344,0-0.631-0.013-0.862-0.04
				c-0.231-0.027-0.415-0.063-0.55-0.109c-0.136-0.045-0.233-0.104-0.292-0.176c-0.059-0.072-0.088-0.154-0.088-0.245v-16.599
				c0-0.09,0.029-0.172,0.088-0.244c0.059-0.072,0.158-0.131,0.299-0.177c0.14-0.045,0.324-0.081,0.55-0.108
				c0.226-0.027,0.511-0.041,0.855-0.041c0.354,0,0.643,0.014,0.87,0.041c0.226,0.027,0.407,0.064,0.543,0.108
				c0.136,0.046,0.233,0.105,0.293,0.177c0.058,0.072,0.088,0.154,0.088,0.244V951.118z"/>
			<path style="fill:#5B2511;" d="M579.868,950.357c0,0.209-0.036,0.395-0.108,0.558c-0.073,0.163-0.17,0.299-0.292,0.407
				c-0.123,0.108-0.267,0.188-0.435,0.237c-0.168,0.05-0.338,0.075-0.51,0.075h-1.521c-0.317,0-0.591-0.032-0.822-0.096
				c-0.231-0.063-0.444-0.179-0.639-0.346c-0.195-0.168-0.382-0.395-0.563-0.68s-0.385-0.653-0.611-1.106l-4.373-8.218
				c-0.254-0.489-0.512-1.017-0.774-1.583c-0.263-0.565-0.498-1.115-0.707-1.65h-0.027c0.036,0.652,0.063,1.302,0.081,1.949
				c0.018,0.647,0.027,1.315,0.027,2.004v9.195c0,0.091-0.025,0.173-0.075,0.245c-0.05,0.072-0.136,0.134-0.258,0.183
				c-0.123,0.051-0.288,0.089-0.496,0.116c-0.208,0.027-0.475,0.04-0.801,0.04c-0.317,0-0.58-0.013-0.788-0.04
				c-0.208-0.027-0.372-0.065-0.489-0.116c-0.118-0.049-0.199-0.11-0.245-0.183c-0.045-0.072-0.068-0.154-0.068-0.245v-15.797
				c0-0.426,0.125-0.745,0.373-0.958c0.249-0.212,0.555-0.318,0.917-0.318h1.915c0.344,0,0.634,0.029,0.87,0.088
				c0.235,0.059,0.446,0.156,0.631,0.292c0.185,0.136,0.36,0.324,0.523,0.564c0.163,0.24,0.331,0.537,0.503,0.89l3.423,6.425
				c0.199,0.39,0.396,0.772,0.591,1.148s0.382,0.751,0.563,1.127c0.181,0.376,0.358,0.745,0.53,1.107
				c0.172,0.362,0.34,0.725,0.503,1.086h0.013c-0.027-0.633-0.047-1.294-0.061-1.982c-0.014-0.688-0.021-1.345-0.021-1.97v-8.245
				c0-0.091,0.027-0.172,0.082-0.244c0.055-0.072,0.145-0.136,0.272-0.19c0.126-0.055,0.294-0.093,0.502-0.115
				c0.208-0.022,0.476-0.034,0.801-0.034c0.308,0,0.566,0.012,0.774,0.034c0.208,0.023,0.369,0.061,0.482,0.115
				c0.113,0.055,0.192,0.118,0.238,0.19c0.045,0.072,0.068,0.153,0.068,0.244V950.357z"/>
			<path style="fill:#5B2511;" d="M594.116,950.208c0,0.263-0.012,0.482-0.034,0.659c-0.022,0.177-0.057,0.319-0.101,0.428
				c-0.045,0.108-0.102,0.188-0.17,0.237c-0.068,0.051-0.142,0.075-0.224,0.075h-8.829c-0.299,0-0.55-0.088-0.754-0.265
				c-0.204-0.177-0.306-0.464-0.306-0.862v-15.322c0-0.398,0.102-0.685,0.306-0.862c0.204-0.177,0.455-0.265,0.754-0.265h8.775
				c0.082,0,0.154,0.022,0.217,0.067c0.063,0.046,0.118,0.125,0.163,0.238c0.045,0.113,0.079,0.258,0.102,0.435
				c0.022,0.176,0.034,0.4,0.034,0.672c0,0.254-0.012,0.469-0.034,0.646c-0.023,0.177-0.057,0.319-0.102,0.428
				c-0.045,0.108-0.1,0.188-0.163,0.237c-0.064,0.05-0.136,0.075-0.217,0.075h-6.275v4.292h5.311c0.082,0,0.156,0.025,0.224,0.075
				c0.068,0.05,0.124,0.127,0.169,0.231c0.045,0.104,0.08,0.244,0.102,0.421c0.022,0.177,0.034,0.392,0.034,0.646
				c0,0.263-0.012,0.48-0.034,0.652c-0.022,0.172-0.057,0.31-0.102,0.414c-0.045,0.105-0.102,0.179-0.169,0.224
				c-0.068,0.046-0.143,0.068-0.224,0.068h-5.311v4.958h6.33c0.082,0,0.156,0.024,0.224,0.074c0.068,0.05,0.125,0.129,0.17,0.238
				c0.045,0.108,0.079,0.251,0.101,0.428C594.104,949.727,594.116,949.946,594.116,950.208z"/>
			<path style="fill:#5B2511;" d="M617.656,936.761c0,0.263-0.012,0.489-0.034,0.68c-0.022,0.19-0.054,0.342-0.095,0.455
				c-0.041,0.113-0.09,0.192-0.15,0.237c-0.059,0.046-0.129,0.068-0.21,0.068c-0.118,0-0.308-0.082-0.57-0.245
				c-0.263-0.163-0.611-0.339-1.046-0.529c-0.435-0.19-0.953-0.367-1.555-0.53c-0.602-0.162-1.302-0.244-2.099-0.244
				c-0.852,0-1.621,0.148-2.309,0.442c-0.688,0.295-1.277,0.711-1.766,1.25c-0.489,0.539-0.865,1.186-1.128,1.942
				c-0.263,0.756-0.393,1.592-0.393,2.506c0,1.005,0.133,1.891,0.4,2.655c0.267,0.766,0.641,1.406,1.121,1.922
				c0.48,0.517,1.057,0.906,1.732,1.169c0.674,0.263,1.419,0.393,2.234,0.393c0.398,0,0.793-0.045,1.182-0.136
				c0.39-0.091,0.752-0.227,1.087-0.407v-4.075h-3.328c-0.163,0-0.289-0.103-0.38-0.306c-0.09-0.204-0.136-0.55-0.136-1.039
				c0-0.254,0.011-0.467,0.034-0.639c0.022-0.172,0.056-0.31,0.102-0.414c0.046-0.104,0.1-0.182,0.163-0.231
				c0.063-0.049,0.136-0.074,0.217-0.074h5.936c0.144,0,0.274,0.025,0.387,0.074c0.113,0.05,0.212,0.125,0.299,0.225
				c0.086,0.1,0.151,0.22,0.197,0.359c0.045,0.141,0.068,0.302,0.068,0.482v6.995c0,0.273-0.047,0.51-0.142,0.714
				c-0.095,0.203-0.29,0.364-0.584,0.481c-0.294,0.118-0.659,0.24-1.093,0.367c-0.435,0.127-0.885,0.235-1.352,0.326
				c-0.467,0.09-0.938,0.158-1.412,0.203c-0.476,0.046-0.953,0.068-1.433,0.068c-1.404,0-2.66-0.201-3.769-0.604
				c-1.109-0.402-2.049-0.987-2.818-1.752c-0.77-0.766-1.358-1.698-1.766-2.799c-0.408-1.1-0.611-2.347-0.611-3.741
				c0-1.441,0.217-2.733,0.652-3.879c0.435-1.145,1.05-2.118,1.847-2.92c0.797-0.802,1.759-1.415,2.887-1.841
				c1.128-0.425,2.384-0.638,3.769-0.638c0.761,0,1.454,0.052,2.078,0.156c0.625,0.104,1.17,0.23,1.637,0.38
				c0.466,0.149,0.853,0.31,1.162,0.482c0.308,0.172,0.523,0.321,0.645,0.448c0.123,0.127,0.21,0.306,0.265,0.536
				C617.629,935.967,617.656,936.309,617.656,936.761z"/>
			<path style="fill:#5B2511;" d="M637.093,942.615c0,1.458-0.181,2.763-0.544,3.912c-0.362,1.15-0.901,2.126-1.616,2.927
				c-0.716,0.802-1.601,1.413-2.656,1.834c-1.055,0.421-2.275,0.632-3.661,0.632c-1.367,0-2.561-0.179-3.579-0.537
				c-1.019-0.357-1.868-0.902-2.547-1.637c-0.679-0.733-1.189-1.666-1.528-2.798c-0.34-1.132-0.51-2.472-0.51-4.021
				c0-1.422,0.181-2.7,0.543-3.837c0.362-1.137,0.901-2.104,1.617-2.9c0.715-0.797,1.6-1.408,2.655-1.834
				c1.055-0.425,2.28-0.638,3.674-0.638c1.331,0,2.506,0.177,3.525,0.529c1.018,0.354,1.87,0.896,2.553,1.63
				c0.684,0.733,1.2,1.66,1.549,2.778C636.919,939.774,637.093,941.094,637.093,942.615z M633.344,942.806
				c0-0.924-0.073-1.764-0.217-2.52c-0.145-0.756-0.392-1.403-0.74-1.942c-0.349-0.539-0.813-0.955-1.393-1.25
				c-0.579-0.294-1.304-0.442-2.173-0.442c-0.878,0-1.612,0.165-2.2,0.496c-0.589,0.33-1.064,0.772-1.426,1.324
				c-0.362,0.553-0.618,1.197-0.767,1.935c-0.15,0.738-0.224,1.519-0.224,2.343c0,0.96,0.073,1.822,0.217,2.588
				c0.145,0.766,0.39,1.419,0.734,1.963c0.344,0.543,0.806,0.957,1.385,1.242c0.58,0.286,1.309,0.429,2.187,0.429
				c0.878,0,1.612-0.163,2.2-0.489c0.589-0.326,1.064-0.769,1.426-1.331c0.362-0.561,0.618-1.216,0.768-1.963
				C633.269,944.442,633.344,943.648,633.344,942.806z"/>
			<path style="fill:#5B2511;" d="M650.514,950.208c0,0.263-0.012,0.482-0.034,0.659c-0.023,0.177-0.057,0.319-0.102,0.428
				c-0.045,0.108-0.102,0.188-0.17,0.237c-0.068,0.051-0.143,0.075-0.224,0.075h-8.829c-0.299,0-0.55-0.088-0.754-0.265
				c-0.204-0.177-0.306-0.464-0.306-0.862v-15.322c0-0.398,0.102-0.685,0.306-0.862c0.204-0.177,0.455-0.265,0.754-0.265h8.775
				c0.082,0,0.154,0.022,0.217,0.067c0.063,0.046,0.118,0.125,0.163,0.238c0.045,0.113,0.079,0.258,0.102,0.435
				c0.022,0.176,0.034,0.4,0.034,0.672c0,0.254-0.012,0.469-0.034,0.646c-0.022,0.177-0.057,0.319-0.102,0.428
				c-0.046,0.108-0.1,0.188-0.163,0.237c-0.063,0.05-0.136,0.075-0.217,0.075h-6.275v4.292h5.311c0.082,0,0.156,0.025,0.224,0.075
				c0.068,0.05,0.124,0.127,0.169,0.231c0.045,0.104,0.08,0.244,0.102,0.421c0.023,0.177,0.034,0.392,0.034,0.646
				c0,0.263-0.012,0.48-0.034,0.652c-0.022,0.172-0.057,0.31-0.102,0.414c-0.045,0.105-0.102,0.179-0.169,0.224
				c-0.068,0.046-0.143,0.068-0.224,0.068h-5.311v4.958h6.33c0.082,0,0.156,0.024,0.224,0.074c0.068,0.05,0.125,0.129,0.17,0.238
				c0.045,0.108,0.079,0.251,0.102,0.428S650.514,949.946,650.514,950.208z"/>
			<path style="fill:#5B2511;" d="M663.812,946.337c0,0.924-0.172,1.734-0.516,2.432c-0.344,0.697-0.81,1.279-1.399,1.745
				c-0.589,0.467-1.277,0.817-2.065,1.053c-0.788,0.235-1.63,0.354-2.526,0.354c-0.607,0-1.17-0.05-1.691-0.149
				c-0.521-0.1-0.981-0.22-1.379-0.36c-0.398-0.14-0.732-0.287-0.999-0.441c-0.267-0.153-0.46-0.289-0.577-0.407
				c-0.118-0.117-0.202-0.287-0.251-0.51c-0.05-0.222-0.075-0.541-0.075-0.957c0-0.28,0.009-0.517,0.027-0.706
				c0.018-0.19,0.048-0.345,0.088-0.462c0.04-0.118,0.095-0.202,0.163-0.252c0.068-0.05,0.147-0.074,0.238-0.074
				c0.127,0,0.306,0.074,0.536,0.224c0.231,0.149,0.528,0.315,0.89,0.496c0.362,0.182,0.794,0.347,1.297,0.496
				c0.503,0.149,1.085,0.224,1.746,0.224c0.435,0,0.824-0.052,1.168-0.156c0.344-0.104,0.636-0.251,0.876-0.441
				c0.24-0.19,0.423-0.426,0.55-0.706c0.127-0.28,0.19-0.593,0.19-0.938c0-0.398-0.109-0.74-0.326-1.025
				c-0.217-0.285-0.5-0.539-0.849-0.761c-0.349-0.222-0.745-0.43-1.189-0.625c-0.444-0.194-0.901-0.4-1.371-0.618
				c-0.471-0.217-0.929-0.464-1.372-0.74c-0.444-0.275-0.84-0.606-1.188-0.991c-0.349-0.385-0.632-0.84-0.849-1.365
				c-0.217-0.525-0.326-1.154-0.326-1.888c0-0.843,0.156-1.583,0.468-2.221c0.313-0.639,0.733-1.169,1.263-1.59
				c0.53-0.421,1.155-0.735,1.874-0.943c0.72-0.209,1.483-0.313,2.289-0.313c0.416,0,0.833,0.031,1.25,0.095
				c0.417,0.064,0.806,0.149,1.168,0.258c0.362,0.109,0.684,0.231,0.964,0.367c0.281,0.136,0.466,0.249,0.557,0.34
				c0.09,0.09,0.151,0.167,0.183,0.23c0.032,0.064,0.059,0.148,0.081,0.251c0.023,0.104,0.039,0.236,0.048,0.394
				c0.009,0.158,0.014,0.356,0.014,0.591c0,0.263-0.007,0.484-0.021,0.665c-0.014,0.182-0.036,0.331-0.068,0.448
				c-0.032,0.118-0.077,0.204-0.136,0.259c-0.059,0.054-0.138,0.081-0.238,0.081c-0.1,0-0.258-0.063-0.476-0.19
				c-0.217-0.126-0.484-0.265-0.801-0.414c-0.317-0.15-0.684-0.285-1.1-0.407c-0.417-0.122-0.874-0.184-1.372-0.184
				c-0.39,0-0.729,0.048-1.018,0.143c-0.29,0.095-0.532,0.227-0.727,0.394c-0.195,0.168-0.339,0.369-0.435,0.604
				c-0.095,0.236-0.143,0.485-0.143,0.747c0,0.39,0.106,0.728,0.319,1.013c0.212,0.285,0.498,0.538,0.855,0.761
				c0.358,0.222,0.763,0.43,1.216,0.624c0.453,0.195,0.915,0.401,1.385,0.618c0.471,0.218,0.933,0.465,1.386,0.74
				c0.453,0.276,0.856,0.607,1.209,0.992c0.353,0.385,0.638,0.837,0.856,1.358C663.703,945.018,663.812,945.631,663.812,946.337z"/>
			<path style="fill:#5B2511;" d="M686.549,951.118c0,0.091-0.03,0.173-0.088,0.245c-0.059,0.072-0.156,0.131-0.292,0.176
				c-0.136,0.046-0.317,0.082-0.543,0.109c-0.227,0.027-0.512,0.04-0.855,0.04c-0.354,0-0.646-0.013-0.876-0.04
				c-0.231-0.027-0.412-0.063-0.543-0.109c-0.131-0.045-0.227-0.104-0.286-0.176c-0.059-0.072-0.088-0.154-0.088-0.245v-7.104
				h-6.574v7.104c0,0.091-0.027,0.173-0.081,0.245c-0.055,0.072-0.149,0.131-0.286,0.176c-0.136,0.046-0.317,0.082-0.543,0.109
				c-0.227,0.027-0.516,0.04-0.87,0.04c-0.344,0-0.631-0.013-0.862-0.04c-0.231-0.027-0.414-0.063-0.55-0.109
				c-0.136-0.045-0.233-0.104-0.292-0.176c-0.059-0.072-0.088-0.154-0.088-0.245v-16.599c0-0.09,0.029-0.172,0.088-0.244
				c0.059-0.072,0.156-0.131,0.292-0.177c0.136-0.045,0.319-0.081,0.55-0.108c0.231-0.027,0.518-0.041,0.862-0.041
				c0.354,0,0.643,0.014,0.87,0.041c0.226,0.027,0.407,0.064,0.543,0.108c0.136,0.046,0.231,0.105,0.286,0.177
				c0.054,0.072,0.081,0.154,0.081,0.244v6.452h6.574v-6.452c0-0.09,0.029-0.172,0.088-0.244c0.059-0.072,0.154-0.131,0.286-0.177
				c0.131-0.045,0.312-0.081,0.543-0.108c0.231-0.027,0.523-0.041,0.876-0.041c0.344,0,0.629,0.014,0.855,0.041
				c0.226,0.027,0.408,0.064,0.543,0.108c0.136,0.046,0.233,0.105,0.292,0.177c0.059,0.072,0.088,0.154,0.088,0.244V951.118z"/>
			<path style="fill:#5B2511;" d="M700.798,950.208c0,0.263-0.012,0.482-0.034,0.659c-0.023,0.177-0.057,0.319-0.102,0.428
				c-0.045,0.108-0.102,0.188-0.17,0.237c-0.068,0.051-0.143,0.075-0.224,0.075h-8.829c-0.299,0-0.55-0.088-0.754-0.265
				c-0.204-0.177-0.306-0.464-0.306-0.862v-15.322c0-0.398,0.102-0.685,0.306-0.862c0.204-0.177,0.455-0.265,0.754-0.265h8.775
				c0.081,0,0.154,0.022,0.217,0.067c0.063,0.046,0.118,0.125,0.163,0.238c0.045,0.113,0.079,0.258,0.102,0.435
				c0.023,0.176,0.034,0.4,0.034,0.672c0,0.254-0.012,0.469-0.034,0.646c-0.022,0.177-0.057,0.319-0.102,0.428
				c-0.045,0.108-0.1,0.188-0.163,0.237c-0.063,0.05-0.136,0.075-0.217,0.075h-6.275v4.292h5.311c0.081,0,0.156,0.025,0.224,0.075
				c0.068,0.05,0.124,0.127,0.169,0.231c0.045,0.104,0.079,0.244,0.102,0.421c0.023,0.177,0.034,0.392,0.034,0.646
				c0,0.263-0.012,0.48-0.034,0.652c-0.023,0.172-0.057,0.31-0.102,0.414c-0.046,0.105-0.102,0.179-0.169,0.224
				c-0.068,0.046-0.143,0.068-0.224,0.068h-5.311v4.958h6.33c0.081,0,0.156,0.024,0.224,0.074c0.068,0.05,0.125,0.129,0.17,0.238
				c0.045,0.108,0.079,0.251,0.102,0.428C700.787,949.727,700.798,949.946,700.798,950.208z"/>
			<path style="fill:#5B2511;" d="M716.989,951.146c0,0.1-0.019,0.184-0.054,0.251c-0.037,0.068-0.123,0.125-0.258,0.17
				c-0.136,0.046-0.335,0.077-0.598,0.096c-0.263,0.018-0.62,0.026-1.073,0.026c-0.38,0-0.684-0.009-0.91-0.026
				c-0.227-0.018-0.406-0.053-0.537-0.103c-0.131-0.05-0.224-0.113-0.279-0.189c-0.054-0.077-0.1-0.17-0.136-0.279l-1.576-3.925
				c-0.19-0.443-0.375-0.838-0.557-1.182c-0.181-0.345-0.383-0.632-0.604-0.863c-0.222-0.23-0.477-0.404-0.768-0.523
				c-0.29-0.117-0.625-0.177-1.005-0.177h-1.114v6.696c0,0.091-0.03,0.173-0.088,0.245c-0.059,0.072-0.156,0.131-0.292,0.176
				c-0.136,0.046-0.317,0.082-0.544,0.109c-0.227,0.027-0.516,0.04-0.869,0.04c-0.344,0-0.632-0.013-0.863-0.04
				c-0.231-0.027-0.414-0.063-0.55-0.109c-0.136-0.045-0.231-0.104-0.285-0.176c-0.054-0.072-0.082-0.154-0.082-0.245v-15.96
				c0-0.398,0.102-0.685,0.306-0.862c0.204-0.177,0.455-0.265,0.754-0.265h4.55c0.462,0,0.842,0.009,1.141,0.026
				c0.299,0.019,0.57,0.041,0.815,0.068c0.707,0.1,1.342,0.272,1.909,0.517c0.565,0.244,1.046,0.564,1.439,0.957
				c0.394,0.394,0.695,0.86,0.903,1.399c0.208,0.539,0.313,1.156,0.313,1.853c0,0.589-0.075,1.126-0.224,1.61
				c-0.149,0.484-0.369,0.916-0.659,1.297c-0.29,0.38-0.647,0.711-1.073,0.991c-0.426,0.281-0.91,0.508-1.453,0.68
				c0.262,0.127,0.509,0.28,0.74,0.462c0.231,0.181,0.448,0.4,0.652,0.658c0.204,0.258,0.396,0.553,0.577,0.883
				c0.181,0.331,0.358,0.704,0.53,1.121l1.481,3.464c0.136,0.344,0.227,0.595,0.272,0.754
				C716.966,950.931,716.989,951.056,716.989,951.146z M712.384,939.22c0-0.579-0.131-1.068-0.394-1.467
				c-0.263-0.398-0.693-0.68-1.291-0.843c-0.181-0.045-0.387-0.081-0.618-0.108c-0.231-0.027-0.55-0.041-0.957-0.041h-1.603v4.985
				h1.82c0.507,0,0.951-0.062,1.331-0.184c0.38-0.122,0.697-0.294,0.951-0.516c0.253-0.222,0.443-0.487,0.57-0.795
				C712.321,939.944,712.384,939.6,712.384,939.22z"/>
			<path style="fill:#5B2511;" d="M730.029,950.208c0,0.263-0.012,0.482-0.034,0.659c-0.022,0.177-0.057,0.319-0.102,0.428
				c-0.045,0.108-0.102,0.188-0.17,0.237c-0.068,0.051-0.142,0.075-0.224,0.075h-8.829c-0.299,0-0.55-0.088-0.754-0.265
				c-0.204-0.177-0.306-0.464-0.306-0.862v-15.322c0-0.398,0.102-0.685,0.306-0.862c0.204-0.177,0.455-0.265,0.754-0.265h8.775
				c0.082,0,0.154,0.022,0.217,0.067c0.063,0.046,0.118,0.125,0.163,0.238c0.045,0.113,0.079,0.258,0.102,0.435
				c0.022,0.176,0.034,0.4,0.034,0.672c0,0.254-0.012,0.469-0.034,0.646c-0.023,0.177-0.057,0.319-0.102,0.428
				c-0.045,0.108-0.1,0.188-0.163,0.237c-0.064,0.05-0.136,0.075-0.217,0.075h-6.275v4.292h5.311c0.081,0,0.156,0.025,0.224,0.075
				c0.068,0.05,0.124,0.127,0.169,0.231c0.045,0.104,0.08,0.244,0.102,0.421c0.022,0.177,0.034,0.392,0.034,0.646
				c0,0.263-0.012,0.48-0.034,0.652c-0.022,0.172-0.057,0.31-0.102,0.414c-0.045,0.105-0.102,0.179-0.169,0.224
				c-0.068,0.046-0.143,0.068-0.224,0.068h-5.311v4.958h6.33c0.082,0,0.156,0.024,0.224,0.074c0.068,0.05,0.125,0.129,0.17,0.238
				c0.045,0.108,0.079,0.251,0.102,0.428C730.017,949.727,730.029,949.946,730.029,950.208z"/>
		</g>
	</g>
</g>
</svg>
